<svg width="16" height="15" viewBox="0 0 16 15" fill="none" xmlns="http://www.w3.org/2000/svg">
<path d="M6.25562 1.00073C3.35625 1.00073 1.00586 3.35113 1.00586 6.25049C1.00586 9.14986 3.35625 11.5003 6.25562 11.5003C9.15499 11.5003 11.5054 9.14986 11.5054 6.25049C11.5022 3.35244 9.15368 1.00389 6.25562 1.00073ZM6.25562 1.50071C7.7998 1.50193 9.24683 2.25452 10.1344 3.51812L9.50947 4.14309C9.35738 4.05106 9.18327 4.00181 9.00549 4.0006C8.45324 4.0006 8.00554 4.44829 8.00554 5.00055C8.00641 5.17851 8.05538 5.35291 8.14728 5.50528L6.51036 7.1422C6.2004 6.95321 5.81086 6.95321 5.5009 7.1422L4.36396 6.00525C4.45586 5.85289 4.50482 5.67849 4.5057 5.50053C4.50639 4.94936 4.06016 4.50201 3.509 4.50132C3.05317 4.50076 2.65491 4.80909 2.54129 5.25054H1.61383C2.08715 3.06479 4.01922 1.50399 6.25562 1.50071ZM9.50547 5.00055C9.50547 5.27669 9.28164 5.50053 9.00549 5.50053C8.72935 5.50053 8.50552 5.27669 8.50552 5.00055C8.50552 4.72441 8.72935 4.50057 9.00549 4.50057C9.28164 4.50057 9.50547 4.72441 9.50547 5.00055ZM6.50561 8.00041C6.50561 8.27656 6.28177 8.50039 6.00563 8.50039C5.72949 8.50039 5.50565 8.27656 5.50565 8.00041C5.50565 7.72427 5.72949 7.50044 6.00563 7.50044C6.28177 7.50044 6.50561 7.72427 6.50561 8.00041ZM4.00572 5.50053C4.00572 5.77667 3.78189 6.0005 3.50575 6.0005C3.2296 6.0005 3.00577 5.77667 3.00577 5.50053C3.00577 5.22438 3.2296 5.00055 3.50575 5.00055C3.78189 5.00055 4.00572 5.22438 4.00572 5.50053ZM8.56345 10.4036C7.85748 10.7956 7.06315 11.001 6.25562 11.0002C3.63418 11.002 1.50762 8.8784 1.50584 6.25696C1.50571 6.08778 1.51465 5.91869 1.53259 5.75048H2.54129C2.65494 6.19062 3.05117 6.49873 3.50575 6.50045C3.68371 6.49957 3.8581 6.45061 4.01047 6.35871L5.14742 7.49565C5.05552 7.64802 5.00655 7.82242 5.00568 8.00038C5.00568 8.55264 5.45337 9.00034 6.00563 9.00034C6.55789 9.00034 7.00559 8.55264 7.00559 8.00038C7.00471 7.82242 6.95574 7.64802 6.86384 7.49565L8.50077 5.85873C8.65313 5.95063 8.82753 5.9996 9.00549 6.00047C9.55775 6.00047 10.0054 5.55277 10.0054 5.00052C10.0046 4.82256 9.95561 4.64816 9.8637 4.49579L10.4087 3.95107C11.681 6.24246 10.8548 9.13136 8.56345 10.4036Z" fill="#3B3B3B"/>
<path d="M12.5051 2.50069C12.9597 2.49897 13.3559 2.19089 13.4696 1.75072H15.005V1.25075H13.4696C13.3559 0.810578 12.9597 0.502499 12.5051 0.50078C11.9529 0.50078 11.5052 0.948478 11.5052 1.50073C11.506 1.67869 11.555 1.85309 11.6469 2.00546L11.2077 2.44469C9.10604 -0.29334 5.18272 -0.809254 2.44469 1.29237C-0.29334 3.39399 -0.809254 7.31734 1.29237 10.0554C3.27615 12.6399 6.91258 13.2668 9.64724 11.4958L10.4017 12.2502L10.7552 12.6037L12.7676 14.6161C13.2794 15.128 14.1092 15.128 14.621 14.6161C15.1328 14.1043 15.1328 13.2745 14.621 12.7627L12.6086 10.7503L12.2551 10.3968L11.5007 9.64236C12.8399 7.57946 12.8399 4.92161 11.5007 2.85867L12.0006 2.3587C12.1529 2.45063 12.3272 2.49969 12.5051 2.50069ZM12.5051 1.00076C12.7812 1.00076 13.0051 1.22459 13.0051 1.50073C13.0051 1.77688 12.7812 2.00071 12.5051 2.00071C12.229 2.00071 12.0051 1.77688 12.0051 1.50073C12.0051 1.22459 12.229 1.00076 12.5051 1.00076ZM14.2675 13.1162C14.5877 13.4292 14.5935 13.9425 14.2806 14.2627C13.9676 14.5828 13.4543 14.5887 13.1341 14.2757C13.1297 14.2714 13.1254 14.2671 13.1211 14.2627L11.1087 12.2502L12.2551 11.1038L14.2675 13.1162ZM11.9016 10.7503L10.7552 11.8968L10.0632 11.2048C10.0985 11.1778 10.1315 11.148 10.1662 11.1203C10.201 11.0925 10.2412 11.0593 10.2785 11.028C10.3332 10.9821 10.3872 10.9356 10.4402 10.8878C10.4674 10.8628 10.4934 10.8378 10.5202 10.8128C10.6227 10.7168 10.7219 10.6176 10.8179 10.5151C10.8429 10.4883 10.8679 10.4623 10.8929 10.4351C10.9407 10.3821 10.9872 10.3281 11.0332 10.2733C11.0645 10.2363 11.0953 10.1989 11.1254 10.1611C11.1529 10.1266 11.1827 10.0936 11.2097 10.0583L11.9016 10.7503ZM10.9322 9.58912C10.8534 9.69911 10.7722 9.80686 10.6864 9.9106C10.6614 9.94085 10.6347 9.9701 10.6089 9.99985C10.5324 10.0888 10.4535 10.1752 10.372 10.2588C10.3365 10.2955 10.3004 10.3316 10.2637 10.3671C10.1804 10.4486 10.0941 10.5276 10.0047 10.6041C9.97497 10.6291 9.94572 10.6563 9.91547 10.6816C9.81173 10.7673 9.70398 10.8486 9.59399 10.9273C7.00611 12.7761 3.40943 12.177 1.56061 9.58912C-0.288215 7.00123 0.310914 3.40455 2.8988 1.55573C5.48668 -0.29309 9.08336 0.306008 10.9322 2.89392C12.3628 4.89639 12.3628 7.58664 10.9322 9.58912Z" fill="#3B3B3B"/>
</svg>
