<svg width="15" height="15" viewBox="0 0 15 15" fill="none" xmlns="http://www.w3.org/2000/svg">
<path d="M13.7698 0C13.7163 0 13.562 0 13.5355 0H4.68751C4.5257 0 4.39453 0.131194 4.39453 0.292976C4.39453 0.454757 4.5257 0.585951 4.68751 0.585951H12.7223C12.6064 0.773543 12.5394 0.994271 12.5394 1.23047V5.06792C12.5394 5.2297 12.6706 5.3609 12.8324 5.3609C12.9942 5.3609 13.1254 5.2297 13.1254 5.06792V4.16014H14.7074C14.8692 4.16014 15.0003 4.02894 15.0003 3.86716V1.23047C15.0003 0.551995 14.4483 0 13.7698 0ZM14.4144 3.57419H13.1253V1.23047C13.1253 0.87506 13.4145 0.585951 13.7698 0.585951C14.1252 0.585951 14.4144 0.875089 14.4144 1.23047V3.57419H14.4144Z" fill="#3B3B3B"/>
<path d="M14.6801 11.9393L12.7663 10.0256C12.9872 9.57516 13.1114 9.06916 13.1114 8.53463C13.1114 6.66073 11.5869 5.13623 9.71301 5.13623C7.83913 5.13623 6.31461 6.66073 6.31461 8.53463C6.31461 8.96305 6.3945 9.37313 6.53985 9.75101L6.19692 10.0939L4.78645 8.68343C4.73151 8.6285 4.65698 8.59762 4.57928 8.59762C4.50159 8.59762 4.42705 8.6285 4.37212 8.68343L4.04238 9.01318V6.33796C4.04238 6.17618 3.91121 6.04498 3.7494 6.04498C3.58759 6.04498 3.45642 6.17618 3.45642 6.33796V9.59913L0.807485 12.2481C0.693078 12.3625 0.693078 12.548 0.807485 12.6625C0.864703 12.7196 0.939676 12.7483 1.01465 12.7483C1.08962 12.7483 1.16462 12.7196 1.22181 12.6625L3.45642 10.4278V12.5391H2.16757C2.00576 12.5391 1.87459 12.6703 1.87459 12.8321V13.7696C1.87459 14.4481 2.42656 15.0001 3.10506 15.0001H11.8943C12.5728 15.0001 13.1248 14.4481 13.1248 13.7695V13.518C13.3297 13.717 13.5999 13.8264 13.8885 13.8264C13.8903 13.8264 13.8921 13.8264 13.894 13.8264C14.1891 13.8249 14.4662 13.7094 14.6745 13.5011C15.1066 13.069 15.1091 12.3684 14.6801 11.9393ZM9.71298 5.72215C11.2638 5.72215 12.5255 6.98382 12.5255 8.53463C12.5255 10.0854 11.2638 11.3471 9.71298 11.3471C8.64807 11.3471 7.71954 10.7522 7.24223 9.87728L8.93533 8.18417V8.84885C8.93533 9.01063 9.0665 9.14182 9.22831 9.14182C9.39012 9.14182 9.52128 9.01063 9.52128 8.84885V7.4428C9.52128 7.28102 9.39012 7.14982 9.22831 7.14982H7.82223C7.66042 7.14982 7.52925 7.28102 7.52925 7.4428C7.52925 7.60458 7.66042 7.73577 7.82223 7.73577H8.55511L7.0031 9.28778C6.93636 9.04798 6.90053 8.79544 6.90053 8.53466C6.9005 6.98379 8.16217 5.72215 9.71298 5.72215ZM3.10503 14.414C2.74962 14.414 2.46051 14.1249 2.46051 13.7695V13.125H10.6637V13.4765C10.6637 13.4861 10.6643 13.4956 10.6652 13.5049C10.6643 13.5143 10.6637 13.5237 10.6637 13.5333V13.7695C10.6637 14.0057 10.7308 14.2265 10.8466 14.4141H3.10503V14.414ZM12.5388 13.7694C12.5388 14.1249 12.2496 14.414 11.8943 14.414C11.5388 14.414 11.2497 14.1248 11.2497 13.7694V13.5333C11.2497 13.5237 11.2492 13.5142 11.2483 13.5049C11.2492 13.4955 11.2497 13.4861 11.2497 13.4765V12.832C11.2497 12.6702 11.1185 12.539 10.9567 12.539H4.04238V9.84177L4.57925 9.30489L5.98973 10.7154C6.04466 10.7703 6.11919 10.8012 6.19689 10.8012C6.27459 10.8012 6.34912 10.7703 6.40405 10.7154L6.81369 10.3058C7.41165 11.281 8.48758 11.933 9.71298 11.933C10.2449 11.933 10.7487 11.81 11.1975 11.5912L12.5388 12.9325V13.7694ZM14.2602 13.0867C14.1618 13.1851 14.0307 13.2396 13.8911 13.2403C13.8903 13.2403 13.8894 13.2403 13.8885 13.2403C13.7509 13.2403 13.6226 13.1878 13.5271 13.0922L11.7143 11.2794C11.9969 11.0728 12.2465 10.8236 12.4537 10.5415L14.2657 12.3536C14.4663 12.5542 14.4639 12.8831 14.2602 13.0867Z" fill="#3B3B3B"/>
<path d="M11.5678 8.2417C11.406 8.2417 11.2748 8.37289 11.2748 8.53467C11.2748 9.39591 10.5742 10.0966 9.7129 10.0966C9.55109 10.0966 9.41992 10.2278 9.41992 10.3896C9.41992 10.5513 9.55109 10.6825 9.7129 10.6825C10.8973 10.6825 11.8608 9.719 11.8608 8.53467C11.8608 8.37289 11.7296 8.2417 11.5678 8.2417Z" fill="#3B3B3B"/>
<path d="M7.50363 5.03906H7.23623V3.07618C7.23623 2.9144 7.10507 2.7832 6.94326 2.7832H5.59786C5.43605 2.7832 5.30488 2.9144 5.30488 3.07618V5.03906H4.83389V1.87501C4.83389 1.71323 4.70273 1.58203 4.54092 1.58203H3.25185C3.09004 1.58203 2.95888 1.71323 2.95888 1.87501V5.03903H2.49021V3.74996C2.49021 3.58818 2.35904 3.45699 2.19723 3.45699H0.908195C0.746385 3.45699 0.61522 3.58818 0.61522 3.74996V5.03903H0.292976C0.131165 5.03903 0 5.17022 0 5.332C0 5.49378 0.131165 5.62498 0.292976 5.62498H7.50366C7.66547 5.62498 7.79664 5.49378 7.79664 5.332C7.79661 5.17022 7.66544 5.03906 7.50363 5.03906ZM1.90428 5.03906H1.20117V4.04297H1.90428V5.03906ZM4.248 5.03906H3.54489V2.16798H4.248V5.03906ZM6.65031 5.03906H5.89086V3.36915H6.65031V5.03906Z" fill="#3B3B3B"/>
<path d="M9.88655 1.58203H7.61719C7.45538 1.58203 7.32422 1.71323 7.32422 1.87501C7.32422 2.03679 7.45538 2.16798 7.61719 2.16798H9.88655C10.0484 2.16798 10.1795 2.03679 10.1795 1.87501C10.1795 1.71323 10.0484 1.58203 9.88655 1.58203Z" fill="#3B3B3B"/>
<path d="M11.5421 1.66787C11.4876 1.61338 11.412 1.58203 11.335 1.58203C11.2579 1.58203 11.1823 1.61335 11.1278 1.66787C11.0733 1.7224 11.042 1.79795 11.042 1.87501C11.042 1.95206 11.0733 2.02765 11.1278 2.08211C11.1823 2.1366 11.2579 2.16798 11.335 2.16798C11.412 2.16798 11.4876 2.13663 11.5421 2.08211C11.5966 2.02765 11.6279 1.95206 11.6279 1.87501C11.6279 1.79798 11.5966 1.7224 11.5421 1.66787Z" fill="#3B3B3B"/>
<path d="M8.75188 2.87109H8.27149C8.10968 2.87109 7.97852 3.00229 7.97852 3.16407C7.97852 3.32585 8.10968 3.45704 8.27149 3.45704H8.75188C8.91369 3.45704 9.04486 3.32585 9.04486 3.16407C9.04486 3.00229 8.91369 2.87109 8.75188 2.87109Z" fill="#3B3B3B"/>
<path d="M11.3359 2.87109H9.88673C9.72492 2.87109 9.59375 3.00229 9.59375 3.16407C9.59375 3.32585 9.72492 3.45704 9.88673 3.45704H11.3359C11.4977 3.45704 11.6289 3.32585 11.6289 3.16407C11.6289 3.00229 11.4977 2.87109 11.3359 2.87109Z" fill="#3B3B3B"/>
<path d="M0.500109 12.9694C0.445616 12.9149 0.370028 12.8835 0.292976 12.8835C0.21563 12.8835 0.140335 12.9149 0.0858418 12.9694C0.0310554 13.0239 0 13.0995 0 13.1765C0 13.2536 0.0310554 13.3292 0.0858418 13.3837C0.140335 13.4381 0.21563 13.4695 0.292976 13.4695C0.370028 13.4695 0.445323 13.4382 0.500109 13.3837C0.554603 13.3292 0.585951 13.2536 0.585951 13.1765C0.585951 13.0994 0.554603 13.0239 0.500109 12.9694Z" fill="#3B3B3B"/>
</svg>
