<svg width="20" height="18" viewBox="0 0 20 18" fill="none" xmlns="http://www.w3.org/2000/svg">
<path d="M19.2131 4.10143C19.0493 3.88265 18.8186 3.71481 18.5213 3.59759C18.5372 3.87116 18.5178 4.09384 18.463 4.26586L14.9474 15.8323C14.8848 16.0354 14.748 16.1975 14.5373 16.3186C14.3262 16.4398 14.1076 16.5003 13.881 16.5003H3.06454C2.12704 16.5003 1.56462 16.2273 1.37704 15.68C1.29893 15.469 1.30287 15.3012 1.38886 15.1762C1.47473 15.0589 1.62315 15.0002 1.83421 15.0002H12.0179C12.7445 15.0002 13.2464 14.8653 13.5238 14.5958C13.8014 14.3262 14.0806 13.7265 14.3617 12.797L17.5726 2.17956C17.7445 1.60146 17.6742 1.0936 17.3616 0.656208C17.0491 0.218818 16.6038 0 16.0256 0H7.10772C7.00617 0 6.80689 0.0350536 6.51 0.105407L6.52166 0.0701482C6.30288 0.0233554 6.11731 0.0019292 5.96499 0.00566441C5.81271 0.009728 5.67204 0.0545916 5.54316 0.140666C5.41427 0.226617 5.31067 0.318314 5.2326 0.415922C5.15449 0.513613 5.07823 0.63864 5.00406 0.790921C4.92997 0.943409 4.86737 1.08407 4.8166 1.21296C4.76582 1.34185 4.70717 1.47865 4.64088 1.62334C4.57438 1.76787 4.5101 1.88698 4.44755 1.98069C4.40063 2.0432 4.33434 2.12521 4.24831 2.2268C4.16248 2.32835 4.09213 2.41824 4.03746 2.49636C3.98282 2.57447 3.94756 2.64478 3.93205 2.70733C3.91653 2.77756 3.92425 2.88108 3.95549 3.01789C3.98668 3.15449 3.99846 3.25403 3.99054 3.31658C3.95935 3.61343 3.85189 3.99032 3.66837 4.44749C3.48485 4.90458 3.31865 5.23476 3.17027 5.43778C3.13903 5.47677 3.05317 5.56469 2.9125 5.70146C2.77183 5.83814 2.68592 5.95718 2.65477 6.05872C2.62349 6.09776 2.62152 6.20719 2.64886 6.38685C2.6762 6.56663 2.68609 6.69153 2.67821 6.76185C2.64681 7.02754 2.54932 7.37906 2.38518 7.81661C2.22103 8.25405 2.05705 8.61349 1.89291 8.8947C1.86955 8.94153 1.80322 9.0313 1.69371 9.16425C1.58445 9.29711 1.51791 9.4065 1.49451 9.49221C1.47892 9.55472 1.48097 9.66411 1.50042 9.82033C1.51984 9.97655 1.51791 10.0937 1.49451 10.1718C1.43208 10.4685 1.31485 10.826 1.14295 11.2441C0.971091 11.6619 0.79529 12.0197 0.615466 12.3163C0.568756 12.3945 0.504149 12.4864 0.42222 12.5917C0.340169 12.6971 0.275767 12.789 0.228851 12.867C0.182017 12.9451 0.15074 13.0272 0.135101 13.1131C0.127302 13.1601 0.139124 13.2362 0.17036 13.3418C0.201555 13.4471 0.213335 13.5311 0.205414 13.5938C0.197533 13.7031 0.182017 13.8478 0.15858 14.0276C0.135101 14.2071 0.123321 14.3124 0.123321 14.3436C-0.04854 14.8125 -0.0408233 15.3086 0.146799 15.8323C0.365576 16.4413 0.754162 16.9553 1.31276 17.3732C1.8714 17.7913 2.45139 18 3.05304 18H13.8696C14.3772 18 14.8558 17.83 15.305 17.4904C15.7542 17.1505 16.0532 16.7307 16.2014 16.2304L19.424 5.61329C19.596 5.05063 19.5258 4.54674 19.2131 4.10143ZM6.74434 4.12487L6.99049 3.37479C7.02169 3.27324 7.08609 3.18536 7.18378 3.11115C7.28147 3.03706 7.38113 2.99983 7.48268 2.99983H14.6079C14.7172 2.99983 14.7952 3.03689 14.8422 3.11115C14.889 3.1854 14.897 3.27324 14.8658 3.37479L14.6194 4.12487C14.588 4.22646 14.5239 4.31413 14.4259 4.38855C14.3282 4.46264 14.2287 4.4997 14.1272 4.4997H7.00223C6.8928 4.4997 6.81473 4.46276 6.76782 4.38855C6.72094 4.31413 6.71314 4.22646 6.74434 4.12487ZM5.77175 7.1249L6.01786 6.37494C6.04905 6.2734 6.11354 6.18552 6.21115 6.1113C6.30884 6.03705 6.40837 5.99999 6.51005 5.99999H13.635C13.7444 5.99999 13.8227 6.03693 13.8694 6.1113C13.9162 6.18556 13.9241 6.2734 13.8928 6.37494L13.6466 7.1249C13.6155 7.22645 13.551 7.31441 13.4534 7.38854C13.3556 7.4628 13.2562 7.49986 13.1545 7.49986H6.02952C5.92017 7.49986 5.84206 7.46292 5.79522 7.38854C5.74827 7.31441 5.74051 7.22645 5.77175 7.1249Z" fill="white"/>
</svg>
