<svg width="15" height="15" viewBox="0 0 15 15" fill="none" xmlns="http://www.w3.org/2000/svg">
<path d="M11.875 7.1875V14.0625C11.875 14.2351 11.7351 14.375 11.5625 14.375H4.6875C4.51491 14.375 4.37499 14.2351 4.37499 14.0625V10.625H3.75V14.0625C3.75 14.5803 4.16974 15 4.6875 15H11.5625C12.0803 15 12.5 14.5803 12.5 14.0625V7.1875H11.875Z" fill="#3B3B3B"/>
<path d="M5.93751 8.4375H3.12501C1.91751 8.43905 0.939053 9.41751 0.9375 10.625H1.56249C1.56352 9.76248 2.26248 9.06355 3.12498 9.06252H5.93748C6.28266 9.06252 6.56247 9.34233 6.56247 9.68751C6.56247 10.0327 6.28266 10.3125 5.93748 10.3125H3.12498V10.9375H5.93748C6.62783 10.9375 7.18749 10.3778 7.18749 9.68748C7.18749 8.99713 6.62786 8.4375 5.93751 8.4375Z" fill="#3B3B3B"/>
<path d="M0.31251 9.375C0.139922 9.375 0 9.51492 0 9.68751V10H1.56249V9.375H0.31251Z" fill="#3B3B3B"/>
<path d="M3.12501 13.75C2.26248 13.749 1.56354 13.05 1.56249 12.1875H0.9375C0.939053 13.395 1.91751 14.3735 3.12501 14.375H4.06251V13.75H3.12501V13.75Z" fill="#3B3B3B"/>
<path d="M0 12.8125V13.125C0 13.2976 0.139922 13.4375 0.31251 13.4375H1.56252V12.8125H0V12.8125Z" fill="#3B3B3B"/>
<path d="M11.875 0.625H9.68748C8.99716 0.625 8.4375 1.18466 8.4375 1.87501C8.4375 2.56536 8.99716 3.12502 9.68751 3.12502H12.5V2.5H9.68751C9.34233 2.5 9.06252 2.22019 9.06252 1.87501C9.06252 1.52983 9.34233 1.25002 9.68751 1.25002H11.875C12.7375 1.25104 13.4365 1.95001 13.4375 2.81251H14.0625C14.0609 1.60504 13.0825 0.626553 11.875 0.625Z" fill="#3B3B3B"/>
<path d="M14.6875 1.5625H13.4375V2.18749H15V1.87501C15 1.70242 14.8601 1.5625 14.6875 1.5625Z" fill="#3B3B3B"/>
<path d="M13.4375 4.375C13.4365 5.23753 12.7375 5.93647 11.875 5.93749H9.6875V6.56251H11.875C13.0825 6.56096 14.061 5.5825 14.0625 4.375H13.4375Z" fill="#3B3B3B"/>
<path d="M13.4375 5.00003V5.62502H14.6875C14.8601 5.62502 15 5.4851 15 5.31251V5H13.4375V5.00003Z" fill="#3B3B3B"/>
<path d="M11.1087 2.72657L10.5075 2.89687C10.752 3.7611 10.612 4.68882 10.1233 5.44236C9.18625 6.88702 7.25556 7.29858 5.81087 6.36158C4.36621 5.42458 3.95465 3.49389 4.89165 2.0492C5.82865 0.604541 7.75935 0.192979 9.20403 1.12998L9.54528 0.60624C8.93708 0.210733 8.22716 0.000117243 7.50162 5.52121e-08C5.43054 -0.000351507 3.75133 1.67827 3.75098 3.74936C3.75063 5.82044 5.42925 7.49965 7.5003 7.5C7.84466 7.49977 8.18734 7.45213 8.51872 7.35844C10.513 6.79459 11.6726 4.72084 11.1087 2.72657Z" fill="#3B3B3B"/>
<path d="M6.875 2.81249H8.12501V2.1875H6.875C6.35724 2.1875 5.9375 2.60724 5.9375 3.125C5.9375 3.64276 6.35724 4.0625 6.875 4.0625H8.12501V3.43751H6.875C6.70241 3.43751 6.56249 3.29759 6.56249 3.125C6.56249 2.95241 6.70241 2.81249 6.875 2.81249Z" fill="#3B3B3B"/>
<path d="M8.12501 3.4375H6.875V4.06249H8.12501C8.2976 4.06249 8.43752 4.20241 8.43752 4.375C8.43752 4.54759 8.2976 4.68751 8.12501 4.68751H6.875C6.70241 4.68751 6.56249 4.54759 6.56249 4.375H5.9375C5.9375 4.89276 6.35724 5.3125 6.875 5.3125H8.12501C8.64277 5.3125 9.06251 4.89276 9.06251 4.375C9.06251 3.85724 8.64277 3.4375 8.12501 3.4375Z" fill="#3B3B3B"/>
<path d="M7.81249 5H7.1875V5.9375H7.81249V5Z" fill="#3B3B3B"/>
<path d="M7.81249 1.5625H7.1875V2.5H7.81249V1.5625Z" fill="#3B3B3B"/>
<path d="M4.6875 6.5625C4.16974 6.5625 3.75 6.98224 3.75 7.5V8.75001H4.37499V7.5C4.37499 7.32741 4.51491 7.18749 4.6875 7.18749H5.93751V6.5625H4.6875Z" fill="#3B3B3B"/>
<path d="M5.93749 6.875H5.3125V8.75H5.93749V6.875Z" fill="#3B3B3B"/>
<path d="M7.49999 7.1875V9.37501H6.875V10H7.8125C7.98509 10 8.12501 9.86008 8.12501 9.68749V7.1875H7.49999Z" fill="#3B3B3B"/>
<path d="M11.25 13.125H9.375V13.75H11.25V13.125Z" fill="#3B3B3B"/>
<path d="M11.25 11.875H9.375V12.5H11.25V11.875Z" fill="#3B3B3B"/>
</svg>
