<svg width="11" height="8" viewBox="0 0 11 8" fill="none" xmlns="http://www.w3.org/2000/svg">
<path d="M10.5196 0.0612768C10.0233 -0.158776 9.46961 0.265611 9.14506 0.5171C8.40052 1.11439 7.77051 1.80598 7.0641 2.4347C6.28135 3.1263 5.55588 3.81789 4.75404 4.49379C4.29585 4.87103 3.79947 5.27969 3.49401 5.75124C2.80672 5.20108 2.21489 4.60379 1.45124 4.11656C0.897588 3.77076 -0.0187978 3.51927 0.000293609 4.35233C0.0384763 5.4369 1.20305 6.60004 2.06216 7.33876C2.4249 7.65312 2.90218 7.9832 3.45583 7.99892C4.12403 8.03035 4.81132 7.37019 5.21223 7.00868C5.91865 6.37996 6.49139 5.67262 7.14046 5.02821C7.98048 4.17943 8.83959 3.34635 9.66052 2.48186C10.176 1.94744 11.7988 0.627101 10.5196 0.0612768ZM0.840282 4.28946C0.821191 4.28946 0.8021 4.28946 0.763917 4.30515C0.687551 4.28946 0.630277 4.27371 0.553912 4.24228C0.611186 4.21084 0.706643 4.22656 0.840282 4.28946Z" fill="white"/>
</svg>
