<svg width="15" height="17" viewBox="0 0 15 17" fill="none" xmlns="http://www.w3.org/2000/svg">
<path d="M3.10834 10.5932C3.41101 13.3428 5.73377 15.4243 8.49994 15.4248L3.10834 10.5932ZM3.10834 10.5932C2.80593 7.8436 4.62058 5.30688 7.32045 4.70487M3.10834 10.5932L7.32045 4.70487M7.32045 4.70487C7.46908 4.67184 7.57494 4.54004 7.57494 4.38764V3.325H9.42492V4.38764C9.42492 4.54003 9.53076 4.67181 9.67942 4.70486C12.3792 5.30685 14.194 7.84359 13.8915 10.5932C13.589 13.3428 11.2661 15.4243 8.49997 15.4248L7.32045 4.70487ZM6.99996 1.57498C7.6237 1.57498 8.13391 2.06102 8.17258 2.67502H7.24992C7.07045 2.67502 6.92496 2.82042 6.92496 2.99998V4.133C3.99489 4.91898 2.09036 7.75 2.4735 10.7656C2.85901 13.8002 5.44085 16.075 8.49996 16.075C11.5591 16.075 14.1409 13.8002 14.5264 10.7656C14.9095 7.75 13.005 4.91898 10.075 4.133V2.99998C10.075 2.8204 9.92938 2.67502 9.74994 2.67502H8.8234C8.78408 1.70173 7.98286 0.925 6.99996 0.925C5.992 0.925 5.175 1.74194 5.175 2.75002C5.175 3.39889 4.6489 3.92494 4.00002 3.92494C3.35108 3.92494 2.82498 3.39889 2.82498 2.75002V2.5V2.425H2.74998H2.25H2.175V2.5V2.75002C2.175 3.75799 2.99207 4.57492 4.00002 4.57492C5.00798 4.57492 5.82498 3.75798 5.82498 2.75002C5.82498 2.10108 6.35103 1.57498 6.99996 1.57498Z" fill="#3B3B3B" stroke="#3B3B3B" stroke-width="0.15"/>
<path d="M2.25 0.925H2.175V1V1.75V1.825H2.25H2.74998H2.82498V1.75V1V0.925H2.74998H2.25Z" fill="#3B3B3B" stroke="#3B3B3B" stroke-width="0.15"/>
<path d="M1 2.175H0.925V2.25V2.75004V2.82504H1H1.75H1.825V2.75004V2.25V2.175H1.75H1Z" fill="#3B3B3B" stroke="#3B3B3B" stroke-width="0.15"/>
<path d="M3.25098 2.175H3.17598V2.25V2.75004V2.82504H3.25098H4.00098H4.07598V2.75004V2.25V2.175H4.00098H3.25098Z" fill="#3B3B3B" stroke="#3B3B3B" stroke-width="0.15"/>
<path d="M1.02021 1.37368L0.967175 1.42671L1.02021 1.47974L1.52019 1.97979L1.57321 2.03282L1.62625 1.97979L1.97985 1.62626L2.03289 1.57322L1.97985 1.52019L1.47981 1.02021L1.42678 0.967184L1.37375 1.0202L1.02021 1.37368Z" fill="#3B3B3B" stroke="#3B3B3B" stroke-width="0.15"/>
<path d="M3.0202 1.5202L2.96718 1.57323L3.02021 1.62625L3.37374 1.97979L3.42678 2.03282L3.47981 1.97979L3.9796 1.47993L4.03262 1.42691L3.97961 1.37388L3.62614 1.02022L3.5731 0.967155L3.52006 1.02022L3.0202 1.5202Z" fill="#3B3B3B" stroke="#3B3B3B" stroke-width="0.15"/>
<path d="M1.02021 3.51988L0.967178 3.57291L1.0202 3.62594L1.37374 3.97954L1.42677 4.03259L1.47981 3.97954L1.97973 3.47956L2.03275 3.42653L1.97973 3.3735L1.62626 3.01997L1.57323 2.96693L1.52019 3.01996L1.02021 3.51988Z" fill="#3B3B3B" stroke="#3B3B3B" stroke-width="0.15"/>
<path d="M9.99908 8.3249H10.0741V8.2499V7.74998V7.67498H9.99908H8.82404V7.25V7.175H8.74904H8.24906H8.17406V7.25V7.67498H7.7656C7.03383 7.67498 6.44062 8.26818 6.44062 8.9999C6.44062 9.73167 7.03382 10.3249 7.7656 10.3249H9.23256C9.60537 10.3249 9.90756 10.6272 9.90756 10.9999C9.90756 11.3726 9.60537 11.6749 9.23256 11.6749H6.99908H6.92408V11.7499V12.2499V12.3249H6.99908H8.17406V12.7499V12.8249H8.24906H8.74904H8.82404V12.7499V12.3249H9.23256C9.96435 12.3249 10.5575 11.7316 10.5575 10.9999C10.5575 10.2682 9.96435 9.6749 9.23256 9.6749H7.7656C7.39285 9.6749 7.0906 9.37265 7.0906 8.9999C7.0906 8.6272 7.39285 8.3249 7.7656 8.3249H9.99908Z" fill="#3B3B3B" stroke="#3B3B3B" stroke-width="0.15"/>
</svg>
