<svg width="19" height="18" viewBox="0 0 19 18" fill="none" xmlns="http://www.w3.org/2000/svg">
<path d="M17.0287 8.75928H14.0361V9.87173H17.0287V8.75928Z" fill="white"/>
<path d="M1.73633 0V1.74923L2.49988 1.51348V0.764142H17.7833V10.5073H5.62161L5.58192 11.2708H18.5481V0H1.73633Z" fill="white"/>
<path d="M2.95188 6.44721C4.20192 6.44721 5.21528 5.43385 5.21528 4.18381C5.21528 2.93377 4.20192 1.92041 2.95188 1.92041C1.70184 1.92041 0.688477 2.93377 0.688477 4.18381C0.688477 5.43385 1.70184 6.44721 2.95188 6.44721Z" fill="white"/>
<path d="M4.87333 16.9662V12.9364V12.5567V12.0413H5.01728L5.22756 7.95107L9.13121 5.92816L8.80304 5.29553L8.89841 5.46139L13.0811 3.06707L12.8921 2.73535L8.71537 5.12611L8.61822 4.93833L5.04926 6.78768H3.77569L2.91263 7.78817L2.0774 6.78768L0.243459 7.12828L0.126172 11.1966H0.903939L0.945997 12.0413H1.06388V12.5567V12.9364V16.9662H0.908086L0 17.1634V17.9998H0.773028L1.67578 17.8529L1.68408 17.9998H2.68398V17.0669V16.9662V12.9364H3.25323V16.9662V17.0669V17.9998H4.25313L4.26143 17.8529L5.16418 17.9998H5.93721V17.1634L5.02853 16.9662H4.87333Z" fill="white"/>
</svg>
