<svg width="15" height="18" viewBox="0 0 15 18" fill="none" xmlns="http://www.w3.org/2000/svg">
<path d="M8.6894 11.9569C8.62218 11.8833 8.53713 11.8282 8.44925 11.7823C8.25789 11.6825 8.04861 11.622 7.84082 11.5674V13.1775C8.17809 13.1394 8.5653 13.017 8.74239 12.7022C8.82693 12.5518 8.84374 12.367 8.80931 12.1995C8.79063 12.1088 8.75204 12.0255 8.6894 11.9569Z" fill="white"/>
<path d="M8.74023 12.7052C8.74091 12.7041 8.74129 12.7034 8.74201 12.7021C8.74142 12.7032 8.74083 12.7042 8.74023 12.7052Z" fill="white"/>
<path d="M6.25916 9.38288C6.20117 9.46755 6.16479 9.56373 6.15475 9.66598C6.14471 9.76844 6.15035 9.88241 6.18927 9.97885C6.22633 10.0708 6.30397 10.1386 6.3841 10.1933C6.47402 10.2544 6.57292 10.3022 6.67364 10.3427C6.75814 10.3767 6.85318 10.4092 6.95564 10.4406V8.98364C6.69681 9.03887 6.414 9.15679 6.25916 9.38288Z" fill="white"/>
<path d="M8.74884 12.6904C8.74672 12.6942 8.74443 12.6981 8.74219 12.7023C8.74481 12.6975 8.74689 12.6939 8.74884 12.6904Z" fill="white"/>
<path d="M8.75781 12.6754C8.75836 12.6743 8.75845 12.6743 8.75781 12.6754V12.6754Z" fill="white"/>
<path d="M8.40807 3.9165C9.77736 2.76623 10.6923 0.174833 10.1292 0.0614915C9.38109 -0.0891647 7.75644 0.571444 6.97118 0.687835C5.85742 0.822312 4.64437 -0.519914 3.96348 0.228243C3.40986 0.836543 4.36038 3.04874 5.84751 4.01248C1.41075 6.19308 -4.82541 17.1399 6.0539 17.9341C21.1073 19.0332 13.5695 6.04145 8.40807 3.9165ZM9.70087 12.5497C9.65457 12.9764 9.4284 13.3624 9.09032 13.6244C8.73335 13.901 8.28562 14.0297 7.84077 14.0657V14.5373C7.84077 14.6635 7.78566 14.7855 7.69121 14.869C7.56139 14.9839 7.37063 15.0122 7.21307 14.9396C7.0575 14.868 6.9553 14.7085 6.9553 14.5373V14.0219C6.87902 14.0074 6.80328 13.9902 6.72844 13.9696C6.31269 13.8554 5.92705 13.6328 5.64535 13.3033C5.50502 13.1391 5.39062 12.9528 5.3115 12.7516C5.29084 12.6991 5.27241 12.6455 5.25627 12.5914C5.24166 12.5424 5.22658 12.4926 5.22137 12.4415C5.21261 12.3558 5.22959 12.2684 5.26953 12.1921C5.35161 12.0351 5.52459 11.9403 5.70121 11.956C5.87504 11.9714 6.02739 12.0921 6.08211 12.2577C6.09897 12.3088 6.1104 12.3611 6.12933 12.4116C6.1481 12.4617 6.17076 12.5105 6.1974 12.5569C6.25 12.6483 6.31591 12.7326 6.39181 12.8057C6.54827 12.9565 6.74755 13.0544 6.9553 13.1127V11.3608C6.54907 11.2557 6.12976 11.1198 5.79431 10.859C5.63128 10.7322 5.49295 10.5746 5.40236 10.3882C5.30676 10.1913 5.26716 9.97206 5.26555 9.75427C5.2639 9.53314 5.30591 9.31395 5.39816 9.11247C5.48457 8.92382 5.60896 8.75445 5.76148 8.61404C6.08761 8.31387 6.52082 8.14644 6.95534 8.08494V8.0464V7.59545C6.95534 7.46931 7.01044 7.34725 7.10489 7.26372C7.23475 7.1489 7.42544 7.12052 7.58304 7.19312C7.73856 7.26474 7.84081 7.42425 7.84081 7.59545V8.0464V8.08227C7.89871 8.08956 7.95644 8.09828 8.01387 8.1087C8.44055 8.18592 8.85788 8.36211 9.16991 8.66974C9.31772 8.81544 9.43873 8.98905 9.52382 9.17838C9.54758 9.23119 9.56838 9.28524 9.58638 9.34034C9.60315 9.39172 9.62001 9.44462 9.62802 9.49824C9.64081 9.58384 9.62776 9.67228 9.59112 9.75059C9.51607 9.91103 9.34775 10.0132 9.17067 10.0056C8.99667 9.99803 8.83903 9.88473 8.77672 9.72208C8.75817 9.67372 8.7489 9.62251 8.72997 9.57427C8.71086 9.52543 8.68613 9.47884 8.65762 9.43483C8.60222 9.34928 8.53043 9.27592 8.44847 9.21548C8.27101 9.08443 8.05576 9.01616 7.84068 8.97799V10.6545C8.09629 10.7157 8.35212 10.7824 8.59701 10.879C8.96715 11.025 9.31789 11.2488 9.51993 11.6017C9.48858 11.5467 9.45809 11.4931 9.52098 11.6035C9.58274 11.7119 9.55326 11.6602 9.52225 11.6059C9.68299 11.8892 9.73581 12.2279 9.70087 12.5497Z" fill="white"/>
<path d="M8.7361 12.7136C8.73352 12.7182 8.73127 12.7223 8.72949 12.7254C8.73102 12.7227 8.7333 12.7187 8.7361 12.7136Z" fill="white"/>
</svg>
