<svg width="15" height="17" viewBox="0 0 15 17" fill="none" xmlns="http://www.w3.org/2000/svg">
<path d="M7.5 0C3.36423 0 0 3.19557 0 7.16694C0 9.44567 1.12572 11.571 3.02997 12.9222V16.336C3.02997 16.5995 3.18999 16.8381 3.43776 16.944C3.68407 17.0494 3.97312 17.0041 4.17334 16.8247L6.9737 14.316C7.14995 14.3278 7.32603 14.3338 7.5 14.3338C11.6358 14.3338 15 11.1382 15 7.16687C15 3.19182 11.6322 0 7.5 0ZM7.5 13.0057C7.27203 13.0057 7.03923 12.9932 6.80802 12.9686C6.61244 12.9475 6.41714 13.0102 6.27228 13.14L4.3936 14.8229V12.5742C4.3936 12.3504 4.27783 12.1416 4.08563 12.0189C2.38118 10.9305 1.36364 9.11669 1.36364 7.16694C1.36364 3.94739 4.11637 1.32813 7.5 1.32813C10.8836 1.32813 13.6364 3.94739 13.6364 7.16694C13.6364 10.3864 10.8836 13.0057 7.5 13.0057Z" fill="#1C75BB"/>
<path d="M7.84064 3.28296H5.45428C5.07771 3.28296 4.77246 3.58026 4.77246 3.94702C4.77246 4.31378 5.07771 4.61109 5.45428 4.61109H7.84064C8.40457 4.61109 8.86337 5.05793 8.86337 5.60718C8.86337 6.15643 8.40457 6.60328 7.84064 6.60328H7.15882C6.78226 6.60328 6.47701 6.90058 6.47701 7.26734V8.22336C6.47701 8.59012 6.78226 8.88742 7.15882 8.88742C7.53539 8.88742 7.84064 8.59012 7.84064 8.22336V7.9314C9.15648 7.9314 10.227 6.88879 10.227 5.60718C10.227 4.32561 9.15648 3.28296 7.84064 3.28296Z" fill="#1C75BB"/>
<path d="M7.15874 11.4937C7.66709 11.4937 8.07919 11.0923 8.07919 10.5972C8.07919 10.1021 7.66709 9.70068 7.15874 9.70068C6.65038 9.70068 6.23828 10.1021 6.23828 10.5972C6.23828 11.0923 6.65038 11.4937 7.15874 11.4937Z" fill="#1C75BB"/>
</svg>
