<svg width="36" height="40" viewBox="0 0 36 40" fill="none" xmlns="http://www.w3.org/2000/svg">
<path d="M33.4795 0H10.112C8.77475 0 7.68677 1.08799 7.68677 2.42523V7.85248C3.25395 9.12107 0 13.21 0 18.0448C0 22.8795 3.25387 26.9685 7.68677 28.2371V37.5748C7.68677 38.912 8.77475 40 10.112 40H29.2077C29.4343 40 29.6515 39.91 29.8118 39.7498L35.6545 33.9071C35.8147 33.7469 35.9046 33.5296 35.9046 33.303V2.42523C35.9046 1.08799 34.8167 0 33.4795 0ZM10.112 1.70837H33.4795C33.8747 1.70837 34.1963 2.02995 34.1963 2.42523V5.00316H9.39514V2.42523C9.39514 2.02995 9.71672 1.70837 10.112 1.70837ZM1.70837 18.0447C1.70837 13.1422 5.69676 9.15385 10.5992 9.15385C15.5017 9.15385 19.4901 13.1422 19.4901 18.0447C19.4901 22.9471 15.5017 26.9356 10.5992 26.9356C5.69676 26.9356 1.70837 22.9471 1.70837 18.0447ZM9.39514 37.5747V28.5752C9.7905 28.6201 10.1921 28.644 10.5993 28.644C13.783 28.644 16.643 27.2328 18.5875 25.0034H23.8213C24.2931 25.0034 24.6755 24.6209 24.6755 24.1492C24.6755 23.6774 24.2931 23.295 23.8213 23.295H19.8041C20.5471 21.9974 21.0231 20.5287 21.1582 18.9637H23.8213C24.293 18.9637 24.6754 18.5813 24.6754 18.1095C24.6754 17.6378 24.293 17.2553 23.8213 17.2553H21.169C21.0535 15.6939 20.5979 14.2257 19.8766 12.9241H23.8212C24.2929 12.9241 24.6754 12.5417 24.6754 12.07C24.6754 11.5982 24.2929 11.2158 23.8212 11.2158H18.6982C16.7524 8.91167 13.844 7.4454 10.599 7.4454C10.1919 7.4454 9.79026 7.46932 9.39489 7.51422V6.71153H34.196V32.4487H30.7785C29.4412 32.4487 28.3534 33.5367 28.3534 34.8738V38.2915H10.112C9.71672 38.2915 9.39514 37.97 9.39514 37.5747ZM30.062 37.0834V34.8739C30.062 34.4786 30.3836 34.1571 30.7788 34.1571H32.9883L30.062 37.0834Z" fill="white"/>
<path d="M27.1774 12.9242H30.0141C30.4859 12.9242 30.8683 12.5418 30.8683 12.07C30.8683 11.5983 30.4859 11.2158 30.0141 11.2158H27.1774C26.7057 11.2158 26.3232 11.5983 26.3232 12.07C26.3232 12.5418 26.7057 12.9242 27.1774 12.9242Z" fill="white"/>
<path d="M27.1774 18.9637H30.0141C30.4859 18.9637 30.8683 18.5813 30.8683 18.1096C30.8683 17.6378 30.4859 17.2554 30.0141 17.2554H27.1774C26.7057 17.2554 26.3232 17.6378 26.3232 18.1096C26.3232 18.5813 26.7057 18.9637 27.1774 18.9637Z" fill="white"/>
<path d="M27.1774 25.0033H30.0141C30.4859 25.0033 30.8683 24.6209 30.8683 24.1491C30.8683 23.6774 30.4859 23.2949 30.0141 23.2949H27.1774C26.7057 23.2949 26.3232 23.6774 26.3232 24.1491C26.3232 24.6209 26.7057 25.0033 27.1774 25.0033Z" fill="white"/>
<path d="M30.0148 31.0428C30.4866 31.0428 30.869 30.6604 30.869 30.1887C30.869 29.7169 30.4866 29.3345 30.0148 29.3345H22.0241C21.5524 29.3345 21.1699 29.7169 21.1699 30.1887C21.1699 30.6604 21.5524 31.0428 22.0241 31.0428H30.0148Z" fill="white"/>
<path d="M17.2314 13.7356L16.1893 12.6934C15.9086 12.4129 15.5355 12.2583 15.1386 12.2583C14.7417 12.2583 14.3686 12.4129 14.088 12.6934L8.62202 18.1594L7.11109 16.6485C6.83051 16.368 6.45735 16.2134 6.06052 16.2134C5.66369 16.2134 5.29053 16.368 5.00996 16.6486L3.96761 17.6908C3.38839 18.2701 3.38839 19.2127 3.96769 19.792L7.57129 23.3956C7.85195 23.6763 8.22511 23.8309 8.62202 23.8309H8.6221C9.01893 23.8309 9.39209 23.6763 9.67258 23.3957L17.2315 15.8368C17.8107 15.2575 17.8107 14.3149 17.2314 13.7356ZM8.62194 22.0303L5.333 18.7414L6.06044 18.014L8.01791 19.9714C8.35153 20.305 8.89235 20.305 9.22597 19.9714L15.1386 14.0588L15.8661 14.7862L8.62194 22.0303Z" fill="white"/>
</svg>
