<svg width="13" height="18" viewBox="0 0 13 18" fill="none" xmlns="http://www.w3.org/2000/svg">
<path d="M9.74214 3.41099V3.01642C9.74214 2.56837 9.37853 2.20532 8.93105 2.20532H7.59986C7.71075 2.00494 7.77379 1.75672 7.77379 1.50455C7.77323 0.675443 7.09891 0 6.27036 0C5.44182 0 4.76807 0.675443 4.76807 1.50455C4.76807 1.75672 4.83111 2.00494 4.94199 2.20532H3.85003C3.40198 2.20532 3.03893 2.56837 3.03893 3.01642V3.41099H1.22987C0.550486 3.41099 0 3.96204 0 4.64142V16.769C0 17.4484 0.550486 18 1.22987 18H11.5495C12.2289 18 12.7799 17.4489 12.7799 16.769V4.64142C12.7799 3.96204 12.2289 3.41099 11.5495 3.41099H9.74214ZM5.3754 1.50511C5.3754 1.01091 5.77673 0.607899 6.2698 0.607899C6.764 0.607899 7.16533 1.01091 7.16533 1.50511C7.16533 1.78767 7.03362 2.03027 6.82761 2.20588H5.71256C5.50711 2.02971 5.3754 1.78767 5.3754 1.50511ZM11.5495 16.0373C11.5495 16.4549 11.2107 16.7938 10.793 16.7938H1.98637C1.56872 16.7938 1.22987 16.4549 1.22987 16.0373V5.39792C1.22987 4.97971 1.56872 4.64142 1.98637 4.64142H3.03781C3.03781 4.97408 3.30742 5.24425 3.64008 5.24425H9.13875C9.47197 5.24425 9.74102 4.97464 9.74102 4.64142H10.793C11.2101 4.64142 11.5495 4.98027 11.5495 5.39792V16.0373Z" fill="white"/>
<path d="M3.49858 8.44124C4.08891 8.44124 4.56747 7.96269 4.56747 7.37236C4.56747 6.78202 4.08891 6.30347 3.49858 6.30347C2.90825 6.30347 2.42969 6.78202 2.42969 7.37236C2.42969 7.96269 2.90825 8.44124 3.49858 8.44124Z" fill="white"/>
<path d="M9.57921 6.77588H5.93407C5.5986 6.77588 5.32617 7.04324 5.32617 7.37871C5.32617 7.71418 5.59804 7.98155 5.93407 7.98155H9.58034C9.91581 7.98155 10.1871 7.71418 10.1871 7.37871C10.1871 7.04324 9.91525 6.77588 9.57921 6.77588Z" fill="white"/>
<path d="M3.49858 11.4735C4.08891 11.4735 4.56747 10.9949 4.56747 10.4046C4.56747 9.81425 4.08891 9.33569 3.49858 9.33569C2.90825 9.33569 2.42969 9.81425 2.42969 10.4046C2.42969 10.9949 2.90825 11.4735 3.49858 11.4735Z" fill="white"/>
<path d="M9.57921 9.78882H5.93407C5.5986 9.78882 5.32617 10.0691 5.32617 10.4046C5.32617 10.7401 5.59804 11.0193 5.93407 11.0193H9.58034C9.91581 11.0193 10.1871 10.7401 10.1871 10.4046C10.1871 10.0691 9.91525 9.78882 9.57921 9.78882Z" fill="white"/>
<path d="M3.49801 14.7133C4.08803 14.7133 4.56634 14.235 4.56634 13.645C4.56634 13.055 4.08803 12.5767 3.49801 12.5767C2.90799 12.5767 2.42969 13.055 2.42969 13.645C2.42969 14.235 2.90799 14.7133 3.49801 14.7133Z" fill="white"/>
<path d="M9.57921 13.0276H5.93407C5.5986 13.0276 5.32617 13.3079 5.32617 13.6434C5.32617 13.9788 5.59804 14.258 5.93407 14.258H9.58034C9.91581 14.258 10.1871 13.9783 10.1871 13.6434C10.1871 13.3079 9.91525 13.0276 9.57921 13.0276Z" fill="white"/>
</svg>
