<svg width="11" height="10" viewBox="0 0 11 10" fill="none" xmlns="http://www.w3.org/2000/svg">
<path d="M5.00001 9.16669H1.24999C1.01999 9.16669 0.833335 8.98001 0.833335 8.75003V1.25001C0.833335 1.02001 1.02001 0.833355 1.24999 0.833355H5.00001C5.23042 0.833355 5.41667 0.647111 5.41667 0.416697C5.41667 0.186283 5.23042 0 5.00001 0H1.24999C0.560828 0 0 0.560848 0 1.25001V8.75001C0 9.43917 0.560828 10 1.24999 10H5.00001C5.23042 10 5.41667 9.81376 5.41667 9.58334C5.41667 9.35293 5.23042 9.16669 5.00001 9.16669Z" fill="white"/>
<path d="M9.90884 4.70346L7.3755 2.20345C7.21216 2.04178 6.94801 2.04388 6.78634 2.20763C6.62467 2.37137 6.62633 2.63512 6.79051 2.79679L8.60092 4.58345H3.74967C3.51925 4.58345 3.33301 4.76969 3.33301 5.00011C3.33301 5.23052 3.51925 5.41678 3.74967 5.41678H8.60092L6.79051 7.20344C6.62635 7.36511 6.6251 7.62886 6.78634 7.79261C6.86799 7.87511 6.9755 7.91677 7.08301 7.91677C7.18885 7.91677 7.29467 7.87677 7.3755 7.79676L9.90884 5.29676C9.98801 5.21843 10.033 5.11175 10.033 5.00009C10.033 4.88847 9.98842 4.78221 9.90884 4.70346Z" fill="white"/>
</svg>
