<svg width="17" height="16" viewBox="0 0 17 16" fill="none" xmlns="http://www.w3.org/2000/svg">
<path d="M8.00002 14.6667H1.99999C1.63198 14.6667 1.33334 14.368 1.33334 14V2.00002C1.33334 1.63202 1.63202 1.33337 1.99999 1.33337H8.00002C8.36868 1.33337 8.66667 1.03538 8.66667 0.666715C8.66667 0.298053 8.36868 0 8.00002 0H1.99999C0.897325 0 0 0.897356 0 2.00002V14C0 15.1027 0.897325 16 1.99999 16H8.00002C8.36868 16 8.66667 15.702 8.66667 15.3333C8.66667 14.9647 8.36868 14.6667 8.00002 14.6667Z" fill="#1C75BB"/>
<path d="M15.8553 7.52543L11.802 3.52543C11.5406 3.26675 11.118 3.27011 10.8593 3.5321C10.6006 3.7941 10.6033 4.21609 10.866 4.47477L13.7626 7.33342H6.00064C5.63197 7.33342 5.33398 7.63141 5.33398 8.00007C5.33398 8.36873 5.63197 8.66676 6.00064 8.66676H13.7626L10.866 11.5254C10.6033 11.7841 10.6013 12.2061 10.8593 12.4681C10.99 12.6001 11.162 12.6667 11.334 12.6667C11.5033 12.6667 11.6726 12.6027 11.802 12.4747L15.8553 8.47471C15.982 8.34939 16.054 8.1787 16.054 8.00004C16.054 7.82145 15.9826 7.65145 15.8553 7.52543Z" fill="#1C75BB"/>
</svg>
