<svg width="17" height="11" viewBox="0 0 17 11" fill="none" xmlns="http://www.w3.org/2000/svg">
<path d="M11.55 0C10.9433 0 10.45 0.49335 10.45 1.1V1.44843L1.91263 4.13903C1.85102 3.66713 1.4509 3.3 0.9625 3.3C0.43175 3.3 0 3.73175 0 4.2625V6.7375C0 7.26825 0.43175 7.7 0.9625 7.7C1.4509 7.7 1.85102 7.33288 1.91263 6.86098L2.49948 7.04577C2.41258 7.14092 2.343 7.25423 2.30065 7.38458C2.1417 7.8749 2.4112 8.40345 2.90208 8.5624L6.0412 9.57935H6.04148C6.1369 9.61015 6.23343 9.625 6.32858 9.625C6.7232 9.625 7.09088 9.37283 7.21903 8.97765C7.26605 8.8319 7.27155 8.68395 7.24845 8.54205L10.45 9.55158V9.9C10.45 10.5066 10.9433 11 11.55 11C12.1567 11 12.65 10.5066 12.65 9.9V1.1C12.65 0.49335 12.1567 0 11.55 0ZM6.6957 8.80853C6.63025 9.01065 6.41245 9.12202 6.2106 9.0563L3.07148 8.03935C2.86935 7.9739 2.75797 7.75638 2.8237 7.55425C2.88943 7.3524 3.10668 7.24158 3.30853 7.30675L6.4482 8.3237C6.65005 8.38915 6.76088 8.60668 6.6957 8.80853ZM1.375 6.7375C1.375 6.96493 1.18993 7.15 0.9625 7.15C0.735075 7.15 0.55 6.96493 0.55 6.7375V4.2625C0.55 4.03508 0.735075 3.85 0.9625 3.85C1.18993 3.85 1.375 4.03508 1.375 4.2625V4.30842V6.69158V6.7375ZM1.925 6.28815V4.71185L10.45 2.02483V8.9749L1.925 6.28815ZM12.1 9.9C12.1 10.2033 11.8533 10.45 11.55 10.45C11.2467 10.45 11 10.2033 11 9.9V9.72482V1.27518V1.1C11 0.796675 11.2467 0.55 11.55 0.55C11.8533 0.55 12.1 0.796675 12.1 1.1V9.9Z" fill="#3B3B3B"/>
<path d="M15.1252 5.2251H14.8502C14.6981 5.2251 14.5752 5.34802 14.5752 5.5001C14.5752 5.65217 14.6981 5.7751 14.8502 5.7751H15.1252C15.2773 5.7751 15.4002 5.65217 15.4002 5.5001C15.4002 5.34802 15.2773 5.2251 15.1252 5.2251Z" fill="#3B3B3B"/>
<path d="M13.7496 5.7751H14.0246C14.1767 5.7751 14.2996 5.65217 14.2996 5.5001C14.2996 5.34802 14.1767 5.2251 14.0246 5.2251H13.7496C13.5975 5.2251 13.4746 5.34802 13.4746 5.5001C13.4746 5.65217 13.5975 5.7751 13.7496 5.7751Z" fill="#3B3B3B"/>
<path d="M16.2248 5.2251H15.9498C15.7977 5.2251 15.6748 5.34802 15.6748 5.5001C15.6748 5.65217 15.7977 5.7751 15.9498 5.7751H16.2248C16.3769 5.7751 16.4998 5.65217 16.4998 5.5001C16.4998 5.34802 16.3769 5.2251 16.2248 5.2251Z" fill="#3B3B3B"/>
<path d="M14.528 1.79747C14.5984 1.79747 14.6688 1.77052 14.7224 1.7169L14.9168 1.52247C15.0244 1.41495 15.0244 1.24115 14.9168 1.13362C14.8093 1.0261 14.6355 1.0261 14.528 1.13362L14.3336 1.32805C14.226 1.43557 14.226 1.60937 14.3336 1.7169C14.3872 1.77052 14.4576 1.79747 14.528 1.79747Z" fill="#3B3B3B"/>
<path d="M15.3053 1.0194C15.3757 1.0194 15.4461 0.992446 15.4998 0.938821L15.6942 0.744396C15.8017 0.636871 15.8017 0.463071 15.6942 0.355546C15.5867 0.248021 15.4129 0.248021 15.3053 0.355546L15.1109 0.549971C15.0034 0.657496 15.0034 0.831296 15.1109 0.938821C15.1648 0.992446 15.2349 1.0194 15.3053 1.0194Z" fill="#3B3B3B"/>
<path d="M13.7497 2.57506C13.8201 2.57506 13.8905 2.54811 13.9441 2.49448L14.1385 2.30006C14.2461 2.19254 14.2461 2.01874 14.1385 1.91121C14.031 1.80369 13.8572 1.80369 13.7497 1.91121L13.5553 2.10563C13.4477 2.21316 13.4477 2.38696 13.5553 2.49448C13.6089 2.54838 13.6793 2.57506 13.7497 2.57506Z" fill="#3B3B3B"/>
<path d="M13.9233 3.60248L13.6626 3.68938C13.5185 3.7375 13.4407 3.89315 13.4888 4.03725C13.5273 4.15248 13.6343 4.22535 13.7495 4.22535C13.7781 4.22535 13.8078 4.22068 13.8364 4.21105L14.0971 4.12415C14.2412 4.07603 14.3191 3.92038 14.2709 3.77628C14.2228 3.63218 14.0672 3.55408 13.9233 3.60248Z" fill="#3B3B3B"/>
<path d="M14.7938 3.87745C14.8224 3.87745 14.8521 3.87278 14.8807 3.86315L15.1414 3.77625C15.2855 3.72813 15.3633 3.57248 15.3152 3.42838C15.267 3.28428 15.1117 3.20618 14.9673 3.25458L14.7066 3.34148C14.5625 3.3896 14.4847 3.54525 14.5328 3.68935C14.5713 3.80458 14.6785 3.87745 14.7938 3.87745Z" fill="#3B3B3B"/>
<path d="M15.5766 3.34094C15.6151 3.45644 15.7224 3.52932 15.8376 3.52932C15.8662 3.52932 15.8956 3.52464 15.9242 3.51529L16.1849 3.42867C16.329 3.38054 16.4071 3.22489 16.3593 3.08079C16.3111 2.93669 16.1552 2.85914 16.0114 2.90644L15.7507 2.99307C15.6066 3.04147 15.5288 3.19712 15.5766 3.34094Z" fill="#3B3B3B"/>
<path d="M15.4998 10.0611C15.3922 9.95359 15.2184 9.95359 15.1109 10.0611C15.0034 10.1686 15.0034 10.3424 15.1109 10.45L15.3053 10.6444C15.3592 10.698 15.4294 10.725 15.4998 10.725C15.5702 10.725 15.6406 10.698 15.6942 10.6444C15.8017 10.5369 15.8017 10.3631 15.6942 10.2555L15.4998 10.0611Z" fill="#3B3B3B"/>
<path d="M14.7224 9.28328C14.6149 9.17576 14.4411 9.17576 14.3336 9.28328C14.226 9.39081 14.226 9.56461 14.3336 9.67213L14.528 9.86656C14.5816 9.92018 14.652 9.94713 14.7224 9.94713C14.7928 9.94713 14.8632 9.92018 14.9168 9.86656C15.0244 9.75903 15.0244 9.58523 14.9168 9.47771L14.7224 9.28328Z" fill="#3B3B3B"/>
<path d="M13.9441 8.50545C13.8366 8.39792 13.6628 8.39792 13.5553 8.50545C13.4477 8.61297 13.4477 8.78677 13.5553 8.8943L13.7497 9.08872C13.8033 9.14235 13.8737 9.1693 13.9441 9.1693C14.0145 9.1693 14.0849 9.14235 14.1385 9.08872C14.2461 8.9812 14.2461 8.8074 14.1385 8.69987L13.9441 8.50545Z" fill="#3B3B3B"/>
<path d="M14.7069 7.65844L14.9676 7.74534C14.9962 7.75497 15.0259 7.75964 15.0545 7.75964C15.1697 7.75964 15.2769 7.68677 15.3152 7.57154C15.3633 7.42772 15.2857 7.27179 15.1414 7.22367L14.8807 7.13676C14.7371 7.08809 14.5809 7.16646 14.5328 7.31056C14.4847 7.45466 14.5625 7.61031 14.7069 7.65844Z" fill="#3B3B3B"/>
<path d="M14.0974 6.87601L13.8368 6.78911C13.6929 6.74043 13.537 6.81881 13.4889 6.96291C13.4407 7.10701 13.5183 7.26266 13.6627 7.31078L13.9234 7.39768C13.952 7.40731 13.9817 7.41198 14.0103 7.41198C14.1255 7.41198 14.2327 7.33911 14.271 7.22388C14.3191 7.07978 14.2415 6.92413 14.0974 6.87601Z" fill="#3B3B3B"/>
<path d="M16.1852 7.57133L15.9245 7.4847C15.7809 7.43712 15.6245 7.51468 15.5766 7.65905C15.5288 7.80288 15.6066 7.9588 15.751 8.00693L16.0117 8.09355C16.0403 8.1029 16.0697 8.10757 16.0983 8.10757C16.2135 8.10757 16.321 8.0347 16.3593 7.9192C16.4071 7.7751 16.3293 7.61945 16.1852 7.57133Z" fill="#3B3B3B"/>
</svg>
