<svg width="40" height="40" viewBox="0 0 40 40" fill="none" xmlns="http://www.w3.org/2000/svg">
<path d="M16.6953 1.44722L17.4035 2.5515C19.9938 0.928848 23.2835 0.928848 25.8738 2.5515L26.582 1.44722C23.569 -0.482406 19.7084 -0.482406 16.6953 1.44722Z" fill="white"/>
<path d="M13.7705 9.17993H12.459C12.4571 10.3931 12.6974 11.5946 13.1659 12.7138L14.3764 12.2075C13.9748 11.2488 13.7688 10.2195 13.7705 9.17993Z" fill="white"/>
<path d="M24.664 16.4436C23.7063 16.8451 22.678 17.0508 21.6396 17.0489V18.3604C22.8522 18.3627 24.053 18.1226 25.1715 17.6541L24.664 16.4436Z" fill="white"/>
<path d="M29.5086 9.17993C29.5104 10.2187 29.3046 11.2474 28.9033 12.2056L30.1138 12.7118C30.5822 11.5933 30.8223 10.3925 30.8201 9.17993H29.5086Z" fill="white"/>
<path d="M21.6395 2.62231C18.0179 2.62231 15.082 5.55818 15.082 9.1798C15.082 12.8014 18.0179 15.7373 21.6395 15.7373C25.2595 15.7333 28.1931 12.7998 28.197 9.1798C28.197 5.55827 25.2611 2.62231 21.6395 2.62231ZM21.6395 14.4258C18.7423 14.4258 16.3935 12.0771 16.3935 9.1798C16.3935 6.28254 18.7423 3.93381 21.6395 3.93381C24.5368 3.93381 26.8855 6.28254 26.8855 9.1798C26.8822 12.0758 24.5355 14.4226 21.6395 14.4258Z" fill="white"/>
<path d="M23.0822 8.97067L22.2953 8.70837V7.02572C22.6606 7.15318 22.9172 7.48294 22.9511 7.86836H24.2626C24.204 6.7617 23.3875 5.84283 22.2953 5.65455V5.24536H20.9838V5.65455C19.8917 5.84283 19.0752 6.7617 19.0166 7.86836C19.0423 8.57624 19.5176 9.18854 20.197 9.38904L20.9838 9.65134V11.3327C20.619 11.2054 20.3624 10.8763 20.3281 10.4914H19.0166C19.0752 11.598 19.8917 12.5169 20.9838 12.7052V13.1143H22.2953V12.7052C23.3875 12.5169 24.204 11.598 24.2626 10.4914C24.2369 9.78347 23.7616 9.17125 23.0822 8.97067ZM20.9838 8.27164L20.6101 8.14574C20.4442 8.09 20.3281 7.9759 20.3281 7.86836C20.362 7.48294 20.6186 7.15318 20.9838 7.02572V8.27164ZM22.2953 11.334V10.0881L22.6691 10.214C22.835 10.2697 22.9511 10.3838 22.9511 10.4914C22.9172 10.8768 22.6606 11.2065 22.2953 11.334Z" fill="white"/>
<path d="M39.1528 27.0772L36.9934 24.9178L39.1528 22.7584C39.4088 22.5024 39.4088 22.0873 39.1528 21.8312L30.6281 13.3065C30.372 13.0505 29.9569 13.0505 29.7008 13.3065L21.3118 21.6955L12.2671 12.6507C12.011 12.3947 11.5959 12.3947 11.3399 12.6507L2.81513 21.1755C2.55914 21.4315 2.55914 21.8466 2.81513 22.1027L7.59751 26.8851H0V28.1966H8.52473C8.61359 28.1968 8.70154 28.1787 8.7831 28.1435L13.2494 26.2293H22.9512V28.8523H15.738C15.3758 28.8523 15.0822 29.1458 15.0822 29.5081C15.0822 29.7639 15.231 29.9964 15.4632 30.1035L23.9879 34.038C24.2025 34.1355 24.4528 34.1105 24.6437 33.9724L36.0006 25.7769L37.7272 27.5034L24.6758 38.6885H21.1013L8.75162 34.139C8.679 34.1122 8.60219 34.0984 8.52473 34.0983H0V35.4098H8.40736L20.7571 39.9594C20.8297 39.9863 20.9065 40 20.984 40H24.9185C25.0749 40.0002 25.2262 39.9441 25.3447 39.842L39.1154 28.0385C39.3904 27.8029 39.4224 27.3889 39.1867 27.1139C39.1759 27.1013 39.1646 27.089 39.1528 27.0772ZM13.115 24.9178C13.0261 24.9176 12.9382 24.9356 12.8566 24.9709L12.6973 25.0365C13.3447 23.3563 15.2317 22.5191 16.9119 23.1666C17.7298 23.4817 18.3863 24.113 18.7334 24.9178H13.115ZM20.1348 24.9178C19.5607 22.9693 17.7693 21.6335 15.738 21.6391C13.4174 21.653 11.4674 23.3862 11.1812 25.689L9.13327 26.5664L4.20597 21.6391L11.8035 14.0416L22.6797 24.9178H20.1348ZM24.1899 32.6865L18.7236 30.1638H23.607C23.9691 30.1638 24.2627 29.8702 24.2627 29.5081V26.5008L27.8234 30.0615L24.1899 32.6865ZM24.3243 24.708C24.5727 23.3082 25.7919 22.2898 27.2136 22.2948C28.8397 22.2919 30.1603 23.6076 30.1633 25.2337C30.1659 26.6565 29.1507 27.8776 27.7513 28.1349L24.3243 24.708ZM28.8156 29.1979C29.0787 29.0912 29.3302 28.9581 29.5668 28.8012L28.9002 29.2825L28.8156 29.1979ZM35.6406 24.4162L29.8621 28.59C31.7031 27.1229 32.0062 24.4412 30.539 22.6002C29.072 20.7593 26.3902 20.4562 24.5493 21.9233C23.9795 22.3774 23.5356 22.9699 23.26 23.6444L22.239 22.6227L30.1644 14.6973L37.7619 22.2948L35.6406 24.4162Z" fill="white"/>
</svg>
