<svg width="14" height="17" viewBox="0 0 14 17" fill="none" xmlns="http://www.w3.org/2000/svg">
<path d="M12.25 1H3.25C2.6385 1 2.13025 1.442 2.023 2.023C1.442 2.13025 1 2.6385 1 3.25V14.75C1 15.4392 1.56075 16 2.25 16H11.25C11.8615 16 12.3698 15.558 12.477 14.977C13.058 14.8698 13.5 14.3615 13.5 13.75V2.25C13.5 1.56075 12.9392 1 12.25 1ZM12 14.75C12 15.1635 11.6635 15.5 11.25 15.5H2.25C1.8365 15.5 1.5 15.1635 1.5 14.75V3.25C1.5 2.8365 1.8365 2.5 2.25 2.5H9.75V4.5C9.75 4.63825 9.86175 4.75 10 4.75H12V14.75ZM10.25 4.25V2.8535L11.6465 4.25H10.25ZM13 13.75C13 14.0755 12.7902 14.3505 12.5 14.454V4.5C12.5 4.43075 12.4718 4.36825 12.4265 4.323L10.1772 2.07375C10.1318 2.02825 10.0693 2 10 2H2.546C2.6495 1.70975 2.9245 1.5 3.25 1.5H12.25C12.6635 1.5 13 1.8365 13 2.25V13.75Z" fill="#3B3B3B"/>
<path d="M12.25 0.875H3.25C2.60596 0.875 2.06677 1.32016 1.91792 1.91792C1.32016 2.06677 0.875 2.60596 0.875 3.25V14.75C0.875 15.5083 1.49171 16.125 2.25 16.125H11.25C11.894 16.125 12.4332 15.6798 12.5821 15.0821C13.1798 14.9332 13.625 14.394 13.625 13.75V2.25C13.625 1.49171 13.0083 0.875 12.25 0.875ZM11.875 14.75C11.875 15.0945 11.5945 15.375 11.25 15.375H2.25C1.90554 15.375 1.625 15.0945 1.625 14.75V3.25C1.625 2.90554 1.90554 2.625 2.25 2.625H9.625V4.5C9.625 4.70729 9.79271 4.875 10 4.875H11.875V14.75ZM10.375 4.125V3.15528L11.3447 4.125H10.375ZM12.875 13.75C12.875 13.9528 12.7768 14.1328 12.625 14.2466V4.5C12.625 4.39599 12.5824 4.30214 12.5149 4.23461L10.2656 1.98536C10.1979 1.91765 10.1041 1.875 10 1.875H2.75341C2.86718 1.72315 3.0472 1.625 3.25 1.625H12.25C12.5945 1.625 12.875 1.90554 12.875 2.25V13.75Z" stroke="white" stroke-opacity="0.4" stroke-width="0.25"/>
<path d="M6.75 3.24976C6.06075 3.24976 5.5 3.81051 5.5 4.49976C5.5 5.18901 6.06075 5.74976 6.75 5.74976C7.43925 5.74976 8 5.18901 8 4.49976C8 3.81051 7.43925 3.24976 6.75 3.24976ZM6.75 5.24976C6.3365 5.24976 6 4.91326 6 4.49976C6 4.08626 6.3365 3.74976 6.75 3.74976C7.1635 3.74976 7.5 4.08626 7.5 4.49976C7.5 4.91326 7.1635 5.24976 6.75 5.24976Z" fill="#3B3B3B"/>
<path d="M6.75 3.12476C5.99171 3.12476 5.375 3.74147 5.375 4.49976C5.375 5.25804 5.99171 5.87476 6.75 5.87476C7.50829 5.87476 8.125 5.25804 8.125 4.49976C8.125 3.74147 7.50829 3.12476 6.75 3.12476ZM6.75 5.12476C6.40554 5.12476 6.125 4.84422 6.125 4.49976C6.125 4.15529 6.40554 3.87476 6.75 3.87476C7.09446 3.87476 7.375 4.15529 7.375 4.49976C7.375 4.84422 7.09446 5.12476 6.75 5.12476Z" stroke="white" stroke-opacity="0.4" stroke-width="0.25"/>
<path d="M4.75 6.50024H2.25V7.00024H4.75V6.50024Z" fill="#3B3B3B"/>
<path d="M4.875 6.50024V6.37524H4.75H2.25H2.125V6.50024V7.00024V7.12524H2.25H4.75H4.875V7.00024V6.50024Z" stroke="white" stroke-opacity="0.4" stroke-width="0.25"/>
<path d="M6.25 6.50024H5.5V7.00024H6.25V6.50024Z" fill="#3B3B3B"/>
<path d="M6.375 6.50024V6.37524H6.25H5.5H5.375V6.50024V7.00024V7.12524H5.5H6.25H6.375V7.00024V6.50024Z" stroke="white" stroke-opacity="0.4" stroke-width="0.25"/>
<path d="M9.75 6.50024H7.25V7.00024H9.75V6.50024Z" fill="#3B3B3B"/>
<path d="M9.875 6.50024V6.37524H9.75H7.25H7.125V6.50024V7.00024V7.12524H7.25H9.75H9.875V7.00024V6.50024Z" stroke="white" stroke-opacity="0.4" stroke-width="0.25"/>
<path d="M11.25 6.50024H10.5V7.00024H11.25V6.50024Z" fill="#3B3B3B"/>
<path d="M11.375 6.50024V6.37524H11.25H10.5H10.375V6.50024V7.00024V7.12524H10.5H11.25H11.375V7.00024V6.50024Z" stroke="white" stroke-opacity="0.4" stroke-width="0.25"/>
<path d="M4.75 7.5H2.25V8H4.75V7.5Z" fill="#3B3B3B"/>
<path d="M4.875 7.5V7.375H4.75H2.25H2.125V7.5V8V8.125H2.25H4.75H4.875V8V7.5Z" stroke="white" stroke-opacity="0.4" stroke-width="0.25"/>
<path d="M6.25 7.5H5.5V8H6.25V7.5Z" fill="#3B3B3B"/>
<path d="M6.375 7.5V7.375H6.25H5.5H5.375V7.5V8V8.125H5.5H6.25H6.375V8V7.5Z" stroke="white" stroke-opacity="0.4" stroke-width="0.25"/>
<path d="M9.75 7.5H7.25V8H9.75V7.5Z" fill="#3B3B3B"/>
<path d="M9.875 7.5V7.375H9.75H7.25H7.125V7.5V8V8.125H7.25H9.75H9.875V8V7.5Z" stroke="white" stroke-opacity="0.4" stroke-width="0.25"/>
<path d="M11.25 7.5H10.5V8H11.25V7.5Z" fill="#3B3B3B"/>
<path d="M11.375 7.5V7.375H11.25H10.5H10.375V7.5V8V8.125H10.5H11.25H11.375V8V7.5Z" stroke="white" stroke-opacity="0.4" stroke-width="0.25"/>
<path d="M4.75 8.5H2.25V9H4.75V8.5Z" fill="#3B3B3B"/>
<path d="M4.875 8.5V8.375H4.75H2.25H2.125V8.5V9V9.125H2.25H4.75H4.875V9V8.5Z" stroke="white" stroke-opacity="0.4" stroke-width="0.25"/>
<path d="M6.25 8.5H5.5V9H6.25V8.5Z" fill="#3B3B3B"/>
<path d="M6.375 8.5V8.375H6.25H5.5H5.375V8.5V9V9.125H5.5H6.25H6.375V9V8.5Z" stroke="white" stroke-opacity="0.4" stroke-width="0.25"/>
<path d="M9.75 8.5H7.25V9H9.75V8.5Z" fill="#3B3B3B"/>
<path d="M9.875 8.5V8.375H9.75H7.25H7.125V8.5V9V9.125H7.25H9.75H9.875V9V8.5Z" stroke="white" stroke-opacity="0.4" stroke-width="0.25"/>
<path d="M11.25 8.5H10.5V9H11.25V8.5Z" fill="#3B3B3B"/>
<path d="M11.375 8.5V8.375H11.25H10.5H10.375V8.5V9V9.125H10.5H11.25H11.375V9V8.5Z" stroke="white" stroke-opacity="0.4" stroke-width="0.25"/>
<path d="M4.75 9.5H2.25V10H4.75V9.5Z" fill="#3B3B3B"/>
<path d="M4.875 9.5V9.375H4.75H2.25H2.125V9.5V10V10.125H2.25H4.75H4.875V10V9.5Z" stroke="white" stroke-opacity="0.4" stroke-width="0.25"/>
<path d="M6.25 9.5H5.5V10H6.25V9.5Z" fill="#3B3B3B"/>
<path d="M6.375 9.5V9.375H6.25H5.5H5.375V9.5V10V10.125H5.5H6.25H6.375V10V9.5Z" stroke="white" stroke-opacity="0.4" stroke-width="0.25"/>
<path d="M9.75 9.5H7.25V10H9.75V9.5Z" fill="#3B3B3B"/>
<path d="M9.875 9.5V9.375H9.75H7.25H7.125V9.5V10V10.125H7.25H9.75H9.875V10V9.5Z" stroke="white" stroke-opacity="0.4" stroke-width="0.25"/>
<path d="M11.25 9.5H10.5V10H11.25V9.5Z" fill="#3B3B3B"/>
<path d="M11.375 9.5V9.375H11.25H10.5H10.375V9.5V10V10.125H10.5H11.25H11.375V10V9.5Z" stroke="white" stroke-opacity="0.4" stroke-width="0.25"/>
<path d="M4.75 11H2.25V11.5H4.75V11Z" fill="#3B3B3B"/>
<path d="M4.875 11V10.875H4.75H2.25H2.125V11V11.5V11.625H2.25H4.75H4.875V11.5V11Z" stroke="white" stroke-opacity="0.4" stroke-width="0.25"/>
<path d="M6.25 11H5.5V11.5H6.25V11Z" fill="#3B3B3B"/>
<path d="M6.375 11V10.875H6.25H5.5H5.375V11V11.5V11.625H5.5H6.25H6.375V11.5V11Z" stroke="white" stroke-opacity="0.4" stroke-width="0.25"/>
<path d="M9.75 11H7.25V11.5H9.75V11Z" fill="#3B3B3B"/>
<path d="M9.875 11V10.875H9.75H7.25H7.125V11V11.5V11.625H7.25H9.75H9.875V11.5V11Z" stroke="white" stroke-opacity="0.4" stroke-width="0.25"/>
<path d="M11.25 11H10.5V11.5H11.25V11Z" fill="#3B3B3B"/>
<path d="M11.375 11V10.875H11.25H10.5H10.375V11V11.5V11.625H10.5H11.25H11.375V11.5V11Z" stroke="white" stroke-opacity="0.4" stroke-width="0.25"/>
<path d="M4.75 12H2.25V12.5H4.75V12Z" fill="#3B3B3B"/>
<path d="M4.875 12V11.875H4.75H2.25H2.125V12V12.5V12.625H2.25H4.75H4.875V12.5V12Z" stroke="white" stroke-opacity="0.4" stroke-width="0.25"/>
<path d="M6.25 12H5.5V12.5H6.25V12Z" fill="#3B3B3B"/>
<path d="M6.375 12V11.875H6.25H5.5H5.375V12V12.5V12.625H5.5H6.25H6.375V12.5V12Z" stroke="white" stroke-opacity="0.4" stroke-width="0.25"/>
<path d="M9.75 12H7.25V12.5H9.75V12Z" fill="#3B3B3B"/>
<path d="M9.875 12V11.875H9.75H7.25H7.125V12V12.5V12.625H7.25H9.75H9.875V12.5V12Z" stroke="white" stroke-opacity="0.4" stroke-width="0.25"/>
<path d="M11.25 12H10.5V12.5H11.25V12Z" fill="#3B3B3B"/>
<path d="M11.375 12V11.875H11.25H10.5H10.375V12V12.5V12.625H10.5H11.25H11.375V12.5V12Z" stroke="white" stroke-opacity="0.4" stroke-width="0.25"/>
<path d="M4.75 13H2.25V13.5H4.75V13Z" fill="#3B3B3B"/>
<path d="M4.875 13V12.875H4.75H2.25H2.125V13V13.5V13.625H2.25H4.75H4.875V13.5V13Z" stroke="white" stroke-opacity="0.4" stroke-width="0.25"/>
<path d="M6.25 13H5.5V13.5H6.25V13Z" fill="#3B3B3B"/>
<path d="M6.375 13V12.875H6.25H5.5H5.375V13V13.5V13.625H5.5H6.25H6.375V13.5V13Z" stroke="white" stroke-opacity="0.4" stroke-width="0.25"/>
<path d="M9.75 13H7.25V13.5H9.75V13Z" fill="#3B3B3B"/>
<path d="M9.875 13V12.875H9.75H7.25H7.125V13V13.5V13.625H7.25H9.75H9.875V13.5V13Z" stroke="white" stroke-opacity="0.4" stroke-width="0.25"/>
<path d="M11.25 13H10.5V13.5H11.25V13Z" fill="#3B3B3B"/>
<path d="M11.375 13V12.875H11.25H10.5H10.375V13V13.5V13.625H10.5H11.25H11.375V13.5V13Z" stroke="white" stroke-opacity="0.4" stroke-width="0.25"/>
<path d="M4.75 14.0002H2.25V14.5002H4.75V14.0002Z" fill="#3B3B3B"/>
<path d="M4.875 14.0002V13.8752H4.75H2.25H2.125V14.0002V14.5002V14.6252H2.25H4.75H4.875V14.5002V14.0002Z" stroke="white" stroke-opacity="0.4" stroke-width="0.25"/>
<path d="M6.25 14.0002H5.5V14.5002H6.25V14.0002Z" fill="#3B3B3B"/>
<path d="M6.375 14.0002V13.8752H6.25H5.5H5.375V14.0002V14.5002V14.6252H5.5H6.25H6.375V14.5002V14.0002Z" stroke="white" stroke-opacity="0.4" stroke-width="0.25"/>
<path d="M9.75 14.0002H7.25V14.5002H9.75V14.0002Z" fill="#3B3B3B"/>
<path d="M9.875 14.0002V13.8752H9.75H7.25H7.125V14.0002V14.5002V14.6252H7.25H9.75H9.875V14.5002V14.0002Z" stroke="white" stroke-opacity="0.4" stroke-width="0.25"/>
<path d="M11.25 14.0002H10.5V14.5002H11.25V14.0002Z" fill="#3B3B3B"/>
<path d="M11.375 14.0002V13.8752H11.25H10.5H10.375V14.0002V14.5002V14.6252H10.5H11.25H11.375V14.5002V14.0002Z" stroke="white" stroke-opacity="0.4" stroke-width="0.25"/>
</svg>
