<svg width="17" height="24" viewBox="0 0 17 24" fill="none" xmlns="http://www.w3.org/2000/svg">
<path fill-rule="evenodd" clip-rule="evenodd" d="M15.6531 16.8562C14.231 14.4003 15.0605 13.0415 14.5016 8.49546C14.0007 4.42239 10.8815 3.2563 9.28387 2.92342V0H7.65829V2.92342C6.05843 3.2563 2.93924 4.42234 2.4395 8.49546C1.88052 13.0394 2.71005 14.4003 1.28796 16.8562C0.91007 17.5044 0.438268 18.0256 0 18.4274V19.3756H16.9399V18.4274C16.5028 18.0256 16.0288 17.5044 15.6531 16.8562Z" fill="#8CA0B3"/>
<path fill-rule="evenodd" clip-rule="evenodd" d="M8.47007 23.9348C9.56727 23.9348 10.4567 23.0637 10.4567 21.9891C10.4567 20.9146 9.56727 20.0435 8.47007 20.0435C7.37286 20.0435 6.4834 20.9146 6.4834 21.9891C6.4834 23.0637 7.37286 23.9348 8.47007 23.9348Z" fill="#8CA0B3"/>
</svg>
