<svg width="20" height="18" viewBox="0 0 20 18" fill="none" xmlns="http://www.w3.org/2000/svg">
<path d="M2.85514 3.34261C3.65481 3.34261 4.30306 2.69436 4.30306 1.8947C4.30306 1.09503 3.65481 0.446777 2.85514 0.446777C2.05548 0.446777 1.40723 1.09503 1.40723 1.8947C1.40723 2.69436 2.05548 3.34261 2.85514 3.34261Z" fill="white"/>
<path d="M18.2154 3.64429H16.3061C15.7148 3.64429 15.2355 4.15699 15.2355 4.78939V6.38723L15.501 6.33924L16.9373 4.49912L15.8752 6.95876L14.2788 7.24753C14.2466 7.18421 14.2013 7.12627 14.1429 7.07828C13.9163 6.89205 13.5815 6.92479 13.3953 7.15147C13.1285 7.47606 11.1639 9.86707 10.8913 10.1988C10.5881 10.1988 9.80269 10.1988 9.50778 10.1988C9.1658 9.62735 7.60295 7.01572 7.3044 6.51673C7.15369 6.265 6.82752 6.18299 6.57582 6.33366C6.43024 6.42079 6.34191 6.56675 6.32202 6.72293L4.57498 6.7337L3.38656 4.96907L4.65144 6.07707L4.67939 6.07692L4.41225 4.61699C4.33402 4.18946 3.9874 3.88046 3.5845 3.88046C3.06566 3.88046 2.70074 3.88046 2.12487 3.88046C1.72118 3.88046 1.3755 4.18863 1.29712 4.61699L0.00683752 11.6684C-0.0140305 11.7823 0.0134294 11.9003 0.081533 11.9901C0.149637 12.0798 0.251415 12.1322 0.358769 12.1322C0.580671 12.1322 0.873916 12.1322 1.20942 12.1322V17.1254C1.20942 17.5884 1.58475 17.9637 2.04776 17.9637C2.16095 17.9637 2.2688 17.941 2.3673 17.9004C2.21199 17.6812 2.12035 17.4139 2.12035 17.1255V12.1322C2.28628 12.1322 2.45555 12.1322 2.62589 12.1322V17.1254C2.62589 17.5884 3.00121 17.9638 3.46423 17.9638C3.92724 17.9638 4.30256 17.5884 4.30256 17.1254V12.1322C4.45708 12.1322 5.23473 12.1322 5.35056 12.1322C5.45799 12.1322 5.55977 12.0801 5.62791 11.9903C5.69605 11.9005 5.72332 11.7823 5.70249 11.6683L5.1591 8.69846C4.44642 8.70287 4.41018 8.70309 3.96065 8.70584C3.58126 8.70818 3.2572 8.46424 3.13885 8.12493L2.29814 5.70209L3.68308 7.75845C3.80508 7.93952 4.00909 8.04805 4.22727 8.04805C4.22862 8.04805 4.22998 8.04805 4.23133 8.04805C7.08577 8.03042 6.88082 8.03618 6.96633 8.02066C7.13915 8.30942 8.5755 10.7097 8.75085 11.0027C8.75168 11.0041 8.75277 11.0053 8.75367 11.0067V14.3089L8.08164 15.4294L7.19185 14.1422C6.99164 13.8526 6.59462 13.7802 6.30503 13.9804C6.01544 14.1806 5.94297 14.5776 6.14313 14.8672L7.59523 16.9679C7.71449 17.1404 7.91062 17.2428 8.11953 17.2428C8.12639 17.2428 8.13328 17.2427 8.14017 17.2425C8.35665 17.2354 8.55482 17.1189 8.66624 16.9332L9.84141 14.9738H10.4058L10.9573 16.7905C11.021 17.0005 11.1883 17.1629 11.4001 17.2205C11.6107 17.2778 11.8375 17.2233 11.9995 17.0738L14.2758 14.9731C14.5345 14.7344 14.5507 14.3311 14.312 14.0724C14.0732 13.8136 13.6699 13.7975 13.4112 14.0362L11.8818 15.4475L11.5672 14.4109V11.0495C11.7801 10.7903 13.2328 9.0224 13.4394 8.77089C13.4394 8.77089 14.5956 8.62455 16.4976 8.27786C16.6862 8.24373 16.8507 8.13479 16.9559 7.97896C17.0162 7.88965 16.9107 8.11438 18.1916 5.1478C17.6385 8.2406 17.6836 8.03023 17.6397 8.13204C17.4559 8.55758 17.074 8.86084 16.6179 8.9433L15.2214 9.19507L15.2136 17.1076C15.2136 17.6004 15.6131 17.9999 16.106 17.9999C16.2394 17.9999 16.3655 17.9698 16.4792 17.9173C16.3382 17.6803 16.257 17.4035 16.257 17.1076V10.6645H16.951V17.1076C16.951 17.6004 17.3505 18 17.8433 18C18.3362 18 18.7357 17.6004 18.7357 17.1076V10.6076C19.0572 10.4848 19.2859 10.1743 19.2859 9.80974V8.82566V4.78939C19.286 4.15695 18.8066 3.64429 18.2154 3.64429Z" fill="white"/>
<path d="M17.2528 3.16976C18.1282 3.16976 18.8377 2.46018 18.8377 1.58488C18.8377 0.709574 18.1282 0 17.2528 0C16.3775 0 15.668 0.709574 15.668 1.58488C15.668 2.46018 16.3775 3.16976 17.2528 3.16976Z" fill="white"/>
<path d="M10.1542 9.77982C10.8801 9.77982 11.4685 9.19136 11.4685 8.46547C11.4685 7.73958 10.8801 7.15112 10.1542 7.15112C9.4283 7.15112 8.83984 7.73958 8.83984 8.46547C8.83984 9.19136 9.4283 9.77982 10.1542 9.77982Z" fill="white"/>
</svg>
