<svg width="22" height="18" viewBox="0 0 22 18" fill="none" xmlns="http://www.w3.org/2000/svg">
<path d="M12.9075 3.08947C13.8965 3.70955 14.5899 4.75886 14.7162 5.97687C15.1195 6.16532 15.5672 6.27369 16.0418 6.27369C17.7744 6.27369 19.1788 4.86937 19.1788 3.13698C19.1788 1.40433 17.7744 0 16.0418 0C14.3257 0.000533863 12.9336 1.37977 12.9075 3.08947ZM10.8524 9.51238C12.585 9.51238 13.9894 8.10778 13.9894 6.3754C13.9894 4.64301 12.5848 3.23868 10.8524 3.23868C9.11999 3.23868 7.71486 4.64328 7.71486 6.37566C7.71486 8.10805 9.11999 9.51238 10.8524 9.51238ZM12.183 9.72619H9.52118C7.30645 9.72619 5.50466 11.5282 5.50466 13.743V16.9982L5.51294 17.0492L5.73716 17.1194C7.85073 17.7798 9.68695 18 11.1983 18C14.1503 18 15.8613 17.1584 15.9668 17.1047L16.1763 16.9987H16.1987V13.743C16.1995 11.5282 14.3978 9.72619 12.183 9.72619ZM17.373 6.48777H14.7317C14.7031 7.54456 14.252 8.49617 13.5385 9.18058C15.5071 9.76596 16.9475 11.5915 16.9475 13.7478V14.7509C19.5554 14.6553 21.0582 13.9162 21.1573 13.8666L21.3668 13.7603H21.3892V10.504C21.3892 8.28956 19.5874 6.48777 17.373 6.48777ZM5.34798 6.27423C5.96165 6.27423 6.53262 6.09512 7.0163 5.79001C7.17005 4.78715 7.70765 3.91082 8.47561 3.31396C8.47882 3.25523 8.48442 3.19704 8.48442 3.13778C8.48442 1.40513 7.07983 0.000800737 5.34798 0.000800737C3.61505 0.000800737 2.21099 1.40513 2.21099 3.13778C2.21099 4.86963 3.61505 6.27423 5.34798 6.27423ZM8.16517 9.18058C7.45513 8.49964 7.00562 7.5531 6.97279 6.50272C6.87482 6.49551 6.77793 6.48777 6.6781 6.48777H4.01652C1.80179 6.48777 0 8.28956 0 10.504V13.7598L0.00827488 13.81L0.232497 13.8807C1.92805 14.41 3.44128 14.654 4.75565 14.7309V13.7478C4.75619 11.5915 6.19602 9.76649 8.16517 9.18058Z" fill="white"/>
</svg>
