<svg width="9" height="9" viewBox="0 0 9 9" fill="none" xmlns="http://www.w3.org/2000/svg">
<path d="M8.05263 3.55263H5.44737V0.947368C5.44737 0.424137 5.02323 0 4.5 0C3.97677 0 3.55263 0.424137 3.55263 0.947368V3.55263H0.947368C0.424137 3.55263 0 3.97677 0 4.5C0 5.02323 0.424137 5.44737 0.947368 5.44737H3.55263V8.05263C3.55263 8.57586 3.97677 9 4.5 9C5.02323 9 5.44737 8.57586 5.44737 8.05263V5.44737H8.05263C8.57586 5.44737 9 5.02323 9 4.5C9 3.97677 8.57586 3.55263 8.05263 3.55263Z" fill="#1C75BB"/>
</svg>
