<svg width="17" height="16" viewBox="0 0 17 16" fill="none" xmlns="http://www.w3.org/2000/svg">
<path d="M8.37155 8.97932C10.8543 8.97932 12.8681 6.96552 12.8681 4.48277C12.8681 2.00003 10.8543 0 8.37155 0C5.88881 0 3.875 2.01381 3.875 4.48277C3.875 6.95174 5.88878 8.97932 8.37155 8.97932ZM8.37155 1.17242C10.1922 1.17242 11.6819 2.66206 11.6819 4.48277C11.6819 6.30348 10.1922 7.7931 8.37155 7.7931C6.55087 7.7931 5.06119 6.30345 5.06119 4.48274C5.06119 2.66204 6.55084 1.17242 8.37155 1.17242Z" fill="#3B3B3B"/>
<path d="M0.593097 16.0001H16.2069C16.5379 16.0001 16.8 15.738 16.8 15.407C16.8 12.3036 14.2759 9.76563 11.1586 9.76563H5.64139C2.53794 9.76562 0 12.2898 0 15.407C0 15.738 0.262065 16.0001 0.593097 16.0001ZM5.64139 10.9518H11.1586C13.4207 10.9518 15.2827 12.6346 15.5724 14.8139H1.22758C1.51723 12.6484 3.37932 10.9518 5.64139 10.9518Z" fill="#3B3B3B"/>
</svg>
