<svg width="17" height="20" viewBox="0 0 17 20" fill="none" xmlns="http://www.w3.org/2000/svg">
<path d="M14.5 0.875H3.7C2.93372 0.875 2.2929 1.40833 2.12219 2.12219C1.40833 2.2929 0.875 2.93372 0.875 3.7V17.5C0.875 18.3961 1.60386 19.125 2.5 19.125H13.3C14.0663 19.125 14.7071 18.5917 14.8778 17.8778C15.5917 17.7071 16.125 17.0663 16.125 16.3V2.5C16.125 1.60386 15.3961 0.875 14.5 0.875ZM14.075 17.5C14.075 17.9272 13.7272 18.275 13.3 18.275H2.5C2.07284 18.275 1.725 17.9272 1.725 17.5V3.7C1.725 3.27284 2.07284 2.925 2.5 2.925H11.375V5.2C11.375 5.43494 11.5651 5.625 11.8 5.625H14.075V17.5ZM12.225 4.775V3.52598L13.474 4.775H12.225ZM15.275 16.3C15.275 16.5691 15.1358 16.8056 14.925 16.944V5.2C14.925 5.08214 14.8768 4.97579 14.8002 4.89921L12.1011 2.20011C12.0243 2.1233 11.918 2.075 11.8 2.075H3.05603C3.19437 1.86424 3.43091 1.725 3.7 1.725H14.5C14.9272 1.725 15.275 2.07284 15.275 2.5V16.3Z" fill="white" stroke="white" stroke-width="0.25"/>
</svg>
