<svg width="23" height="40" viewBox="0 0 23 40" fill="none" xmlns="http://www.w3.org/2000/svg">
<path d="M0.25 4.2893V2.96202C0.25 1.46415 1.46422 0.25 2.96142 0.25H19.5588C21.0567 0.25 22.2708 1.46418 22.2708 2.96202V4.28996H20.9102H20.9095H20.6595V4.53996V9.41688C20.6595 10.7416 20.3246 12.0441 19.6853 13.2043L19.6853 13.2043L16.5233 18.9451C16.163 19.5993 16.1735 20.3961 16.5526 21.0411C16.5526 21.0411 16.5527 21.0412 16.5527 21.0412L19.5788 26.1945L19.5789 26.1946C20.287 27.3996 20.6602 28.7721 20.6602 30.1697V35.46V35.71H20.9102H22.2708V37.0385C22.2708 38.5357 21.0567 39.75 19.5588 39.75H2.96142C1.46419 39.75 0.25 38.5358 0.25 37.0385V35.71H1.61H1.86V35.46V30.1697C1.86 28.772 2.23317 27.3995 2.94125 26.1945L2.9413 26.1944L5.97862 21.0213L5.97864 21.0213C6.35027 20.3881 6.36154 19.6068 6.00734 18.9636L6.00733 18.9636L2.83485 13.203L2.83479 13.2029C2.19551 12.0434 1.86061 10.7403 1.86061 9.41557V4.5393V4.2893H1.61061H0.25ZM18.5919 9.00708V8.75708H18.5907V4.53935V4.28935H18.3407H4.17839H3.92839V4.53935V9.00708C3.92839 10.2514 4.24331 11.4752 4.8437 12.5649C4.84371 12.5649 4.84371 12.5649 4.84372 12.565L8.17664 18.6161L8.17666 18.6162C8.66112 19.4954 8.64633 20.5641 8.1381 21.429L8.13806 21.4291L4.94397 26.8688L4.94394 26.8688C4.27966 28.0007 3.92899 29.2903 3.92899 30.6029V35.4607V35.7107H4.17899H5.97597H6.10377L6.17862 35.6071C6.54855 35.095 7.21644 34.6341 8.10642 34.3009C8.9924 33.9693 10.0791 33.7718 11.2608 33.7718C12.4421 33.7718 13.5286 33.9693 14.4145 34.301C15.3044 34.6341 15.9723 35.0951 16.3423 35.6071L16.4171 35.7107H16.5449H18.3412H18.5912V35.4607V30.6029C18.5912 29.2902 18.2406 28.0006 17.5763 26.8688L17.5763 26.8688L14.3822 21.4291C13.874 20.5635 13.8598 19.4954 14.3437 18.6161L17.6766 12.565C18.277 11.4752 18.5919 10.2514 18.5919 9.00708Z" fill="white" stroke="#FAD961" stroke-width="0.5"/>
<path d="M7.78598 13.1572L10.5389 18.1654L10.5389 18.1654C10.6838 18.4292 10.9609 18.593 11.2615 18.593C11.5618 18.593 11.839 18.4288 11.9841 18.1654L7.78598 13.1572ZM7.78598 13.1572H14.7364L11.9842 18.1653L7.78598 13.1572Z" fill="white" stroke="#FAD961" stroke-width="0.5"/>
</svg>
