<svg width="21" height="18" viewBox="0 0 21 18" fill="none" xmlns="http://www.w3.org/2000/svg">
<path d="M20.6177 6.85123C20.6177 5.00019 19.7289 3.26677 18.115 1.9704C16.5332 0.699793 14.4364 0 12.2111 0C9.98584 0 7.88908 0.699793 6.30728 1.9704C5.52304 2.6004 4.91059 3.33374 4.48753 4.13344C3.60995 4.41424 2.80304 4.83883 2.11275 5.39334C0.750371 6.4878 0 7.95263 0 9.51812C0 10.9455 0.631416 12.3011 1.78371 13.3597L1.67011 17.4858C1.66456 17.687 1.78025 17.8721 1.96359 17.9553C2.02983 17.9854 2.10027 18 2.17021 18C2.2938 18 2.41577 17.9542 2.5102 17.8669L5.44955 15.1469C5.98042 15.2486 6.52606 15.3002 7.07533 15.3002C8.91167 15.3002 10.6441 14.7322 11.9658 13.6995C12.0475 13.7014 12.1292 13.7026 12.2112 13.7026C13.0369 13.7026 13.8506 13.6057 14.634 13.4141L17.2065 15.7946C17.301 15.8819 17.4229 15.9277 17.5465 15.9277C17.6164 15.9277 17.6869 15.9131 17.7532 15.883C17.9365 15.7998 18.0522 15.6148 18.0466 15.4135L17.9489 11.8614C19.6486 10.5682 20.6177 8.75583 20.6177 6.85123ZM7.07537 14.2991C6.50967 14.2991 5.94888 14.2376 5.40876 14.1161C5.24792 14.08 5.07992 14.1252 4.95908 14.237L2.70325 16.3245L2.79051 13.1536C2.79466 13.0023 2.73011 12.8572 2.61486 12.759C1.57403 11.872 1.0008 10.721 1.0008 9.51808C1.0008 7.76707 2.20323 6.23314 3.9921 5.40026C3.86855 5.87149 3.80461 6.35709 3.80461 6.85119C3.80461 8.70223 4.69342 10.4356 6.30728 11.732C7.44125 12.6429 8.83983 13.2603 10.3607 13.537C9.41286 14.0187 8.28513 14.2991 7.07537 14.2991ZM17.1519 11.205C17.0156 11.3017 16.9366 11.46 16.9412 11.627L17.0134 14.2523L15.1129 12.4936C15.0193 12.407 14.8974 12.3605 14.773 12.3605C14.7288 12.3605 14.6842 12.3663 14.6404 12.3784C13.8605 12.5929 13.0431 12.7016 12.2111 12.7016C8.12755 12.7016 4.80533 10.0771 4.80533 6.85115C4.80533 3.62521 8.12759 1.00076 12.2111 1.00076C16.2947 1.00076 19.6169 3.62525 19.6169 6.85119C19.6169 8.50709 18.7184 10.094 17.1519 11.205Z" fill="white"/>
<path d="M12.2806 5.3645C11.3838 5.3645 10.6543 6.09405 10.6543 6.99084C10.6543 7.88763 11.3838 8.61718 12.2806 8.61718C13.1774 8.61718 13.907 7.88763 13.907 6.99084C13.907 6.09405 13.1774 5.3645 12.2806 5.3645ZM12.2806 7.61634C11.9357 7.61634 11.6551 7.33575 11.6551 6.99084C11.6551 6.64594 11.9357 6.36535 12.2806 6.36535C12.6256 6.36535 12.9061 6.64594 12.9061 6.99084C12.9061 7.33575 12.6256 7.61634 12.2806 7.61634Z" fill="white"/>
<path d="M16.5345 5.3645C15.6378 5.3645 14.9082 6.09405 14.9082 6.99084C14.9082 7.88763 15.6378 8.61718 16.5345 8.61718C17.4313 8.61718 18.1609 7.88763 18.1609 6.99084C18.1609 6.09405 17.4313 5.3645 16.5345 5.3645ZM16.5345 7.61634C16.1896 7.61634 15.909 7.33575 15.909 6.99084C15.909 6.64594 16.1896 6.36535 16.5345 6.36535C16.8794 6.36535 17.16 6.64594 17.16 6.99084C17.16 7.33575 16.8795 7.61634 16.5345 7.61634Z" fill="white"/>
<path d="M8.02771 5.3645C7.13096 5.3645 6.40137 6.09405 6.40137 6.99084C6.40137 7.88763 7.13096 8.61718 8.02771 8.61718C8.92442 8.61718 9.65405 7.88763 9.65405 6.99084C9.65405 6.09405 8.9245 5.3645 8.02771 5.3645ZM8.02771 7.61634C7.68276 7.61634 7.40221 7.33575 7.40221 6.99084C7.40221 6.64594 7.6828 6.36535 8.02771 6.36535C8.37265 6.36535 8.6532 6.64594 8.6532 6.99084C8.6532 7.33575 8.37265 7.61634 8.02771 7.61634Z" fill="white"/>
</svg>
