<svg width="14" height="18" viewBox="0 0 14 18" fill="none" xmlns="http://www.w3.org/2000/svg">
<path d="M12.3928 12.6566C12.2598 12.3385 11.9397 12.1348 11.6342 12.0095L9.56946 11.0588L8.57744 10.2222L6.98347 11.8075H6.98226L7.67018 16.4061C7.67265 16.4218 7.66856 16.438 7.6592 16.4509L6.93994 17.4352C6.92851 17.451 6.91027 17.4602 6.89081 17.4602C6.87135 17.4602 6.85311 17.4509 6.84168 17.4352L6.1225 16.4509C6.11302 16.438 6.10905 16.4217 6.11144 16.4061L6.79928 11.8075H6.79823L5.20434 10.2222L4.21232 11.0588L2.14741 12.0095C1.8419 12.1348 1.54169 12.325 1.38896 12.6566C1.38896 12.6566 -0.85552 18.0001 0.361875 18.0001H13.4201C14.6373 18.0002 12.3928 12.6566 12.3928 12.6566Z" fill="white"/>
<path d="M12.5358 5.32993C12.5668 5.32657 12.5948 5.31173 12.6141 5.28769C12.6336 5.2637 12.6424 5.23277 12.6389 5.202C12.6158 5.00464 12.5926 4.80768 12.5697 4.61031L12.5216 4.1973C12.5142 4.13564 12.4591 4.09081 12.397 4.09636L12.3077 4.09648L12.3094 2.7101L12.3561 2.69311L12.512 2.63685C12.6439 2.5891 12.7318 2.46397 12.7318 2.32376C12.7318 2.1835 12.6439 2.05833 12.512 2.01054L7.00354 0.0198521C6.93029 -0.00661738 6.8502 -0.00661738 6.77711 0.0198521L1.26861 2.01054C1.13671 2.05833 1.04883 2.1835 1.04883 2.32376C1.04883 2.46397 1.13671 2.5891 1.26861 2.63685L3.30494 3.37277C3.1612 3.82656 3.09578 4.34614 3.10166 4.92462C3.13749 8.22427 5.05294 10.1919 6.82531 10.1919C8.57696 10.1919 10.5132 8.22427 10.5488 4.92462C10.5548 4.36394 10.4929 3.85891 10.3584 3.41517L11.8391 2.8801L11.8422 4.09701L11.7528 4.09697C11.6906 4.09154 11.6354 4.13621 11.6283 4.19835L11.5125 5.20314C11.509 5.23374 11.5181 5.26435 11.5375 5.28842C11.5569 5.31238 11.5851 5.32774 11.6158 5.3303L12.5358 5.32993ZM6.82555 9.39063C5.27921 9.39063 4.2122 7.57919 3.99696 5.76836C3.79793 4.09369 6.21983 4.01574 6.36049 5.05372C6.40382 5.37282 6.03742 5.71465 6.07897 5.84643C6.28392 6.49698 9.67737 3.72307 9.65418 5.76755C9.63785 7.21105 8.29888 9.39063 6.82555 9.39063Z" fill="white"/>
</svg>
