<svg width="20" height="15" viewBox="0 0 20 15" fill="none" xmlns="http://www.w3.org/2000/svg">
<path d="M12.6732 15H0.435365C0.194935 15 0 14.8051 0 14.5646V8.57516C0 8.33473 0.194935 8.1398 0.435365 8.1398H0.984468C1.2249 8.1398 1.41983 8.33473 1.41983 8.57516C1.41983 8.81559 1.2249 9.01052 0.984468 9.01052H0.870729V14.1293H12.2379V14.0239C12.2379 13.7834 12.4328 13.5885 12.6732 13.5885C12.9137 13.5885 13.1086 13.7834 13.1086 14.0239V14.5646C13.1086 14.8051 12.9137 15 12.6732 15ZM18.7091 14.2764H14.9023C14.6618 14.2764 14.4669 14.0815 14.4669 13.8411C14.4669 13.6006 14.6618 13.4057 14.9023 13.4057H18.2737V0.870729H7.97294V4.60708C7.97294 4.84751 7.77801 5.04245 7.53758 5.04245C7.29715 5.04245 7.10221 4.84751 7.10221 4.60708V0.435365C7.10221 0.194935 7.29715 0 7.53758 0H18.7091C18.9495 0 19.1445 0.194935 19.1445 0.435365V13.841C19.1445 14.0815 18.9496 14.2764 18.7091 14.2764ZM14.9023 12.7959H2.66443C2.424 12.7959 2.22907 12.601 2.22907 12.3605V6.37113C2.22907 6.1307 2.424 5.93576 2.66443 5.93576H14.9023C15.1427 5.93576 15.3376 6.1307 15.3376 6.37113V12.3606C15.3376 12.601 15.1427 12.7959 14.9023 12.7959ZM3.0998 11.9252H14.4669V6.80649H3.0998V11.9252ZM16.7066 12.4655C16.543 12.4655 16.3863 12.3728 16.3122 12.2149C16.21 11.9972 16.3037 11.738 16.5214 11.6358C16.6412 11.5796 16.7701 11.3984 16.7701 11.1334C16.7701 10.8684 16.6412 10.6873 16.5214 10.6311C16.3037 10.529 16.21 10.2697 16.3122 10.052C16.4143 9.83434 16.6737 9.74074 16.8913 9.84283C17.3466 10.0565 17.6408 10.5631 17.6408 11.1334C17.6408 11.7038 17.3466 12.2105 16.8913 12.4241C16.8315 12.4522 16.7686 12.4655 16.7066 12.4655ZM8.78332 10.9974C7.88369 10.9974 7.15179 10.2655 7.15179 9.36584C7.15179 8.46621 7.88369 7.73431 8.78332 7.73431C9.683 7.73431 10.4149 8.46621 10.4149 9.36584C10.4149 10.2655 9.683 10.9974 8.78332 10.9974ZM8.78332 8.60504C8.36384 8.60504 8.02252 8.94631 8.02252 9.36584C8.02252 9.78537 8.36379 10.1266 8.78332 10.1266C9.20285 10.1266 9.54417 9.78537 9.54417 9.36584C9.54417 8.94631 9.20285 8.60504 8.78332 8.60504ZM12.9775 9.8012H11.8566C11.6162 9.8012 11.4212 9.60627 11.4212 9.36584C11.4212 9.12541 11.6162 8.93047 11.8566 8.93047H12.9775C13.2179 8.93047 13.4129 9.12541 13.4129 9.36584C13.4129 9.60627 13.2179 9.8012 12.9775 9.8012ZM5.71013 9.8012H4.58923C4.3488 9.8012 4.15387 9.60627 4.15387 9.36584C4.15387 9.12541 4.3488 8.93047 4.58923 8.93047H5.71013C5.95056 8.93047 6.1455 9.12541 6.1455 9.36584C6.1455 9.60627 5.95056 9.8012 5.71013 9.8012ZM16.1915 4.56371H10.0551C9.8147 4.56371 9.61976 4.36878 9.61976 4.12835C9.61976 3.88792 9.8147 3.69298 10.0551 3.69298H16.1915C16.4319 3.69298 16.6268 3.88792 16.6268 4.12835C16.6268 4.36878 16.4319 4.56371 16.1915 4.56371ZM15.0051 2.7767H11.2144C10.974 2.7767 10.779 2.58177 10.779 2.34134C10.779 2.10091 10.974 1.90597 11.2144 1.90597H15.0051C15.2455 1.90597 15.4405 2.10091 15.4405 2.34134C15.4405 2.58177 15.2455 2.7767 15.0051 2.7767Z" fill="#3B3B3B"/>
</svg>
