<svg width="13" height="17" viewBox="0 0 13 17" fill="none" xmlns="http://www.w3.org/2000/svg">
<path d="M6.7045 8.33599C8.37224 8.33599 9.72434 6.69379 9.72434 4.66801C9.72434 2.6422 9.28043 1 6.7045 1C4.12857 1 3.68457 2.6422 3.68457 4.66801C3.68457 6.69379 5.03667 8.33599 6.7045 8.33599Z" stroke="#3B3B3B"/>
<path d="M1.00059 13.9365C1.00008 13.813 0.999565 13.9017 1.00059 13.9365V13.9365Z" stroke="#3B3B3B"/>
<path d="M12.4082 14.0331C12.4098 13.9993 12.4088 13.7985 12.4082 14.0331V14.0331Z" stroke="#3B3B3B"/>
<path d="M12.4012 13.7884C12.3452 10.2595 11.8843 9.25395 8.3575 8.61743C8.3575 8.61743 7.86104 9.25005 6.7039 9.25005C5.54676 9.25005 5.05021 8.61743 5.05021 8.61743C1.56186 9.247 1.07294 10.2376 1.00866 13.6738C1.00339 13.9544 1.00094 13.9691 1 13.9366C1.00021 13.9976 1.00047 14.1105 1.00047 14.3073C1.00047 14.3073 1.84013 16 6.7039 16C11.5676 16 12.4073 14.3073 12.4073 14.3073C12.4073 14.1808 12.4074 14.0929 12.4075 14.0331C12.4066 14.0532 12.4047 14.0142 12.4012 13.7884Z" stroke="#3B3B3B"/>
</svg>
